<?xml version="1.0" encoding="UTF-8"?>
<svg id="Capa_1" data-name="Capa 1" xmlns="http://www.w3.org/2000/svg" viewBox="0 0 229.78 222.72">
  <defs>
    <style>
      .cls-1 {
        fill: #224982;
      }

      .cls-2 {
        fill: #40e391;
      }
    </style>
  </defs>
  <g>
    <g>
      <ellipse class="cls-1" cx="98.35" cy="13.48" rx="10.43" ry="13.19" transform="translate(-.68 20.35) rotate(-11.77)"/>
      <ellipse class="cls-1" cx="79.64" cy="34.86" rx="8.43" ry="10.66" transform="translate(-5.99 49.89) rotate(-33.6)"/>
    </g>
    <g>
      <ellipse class="cls-1" cx="128.47" cy="13.48" rx="13.19" ry="10.43" transform="translate(89.06 136.49) rotate(-78.23)"/>
      <ellipse class="cls-1" cx="147.17" cy="34.86" rx="10.66" ry="8.43" transform="translate(36.7 138.16) rotate(-56.4)"/>
    </g>
    <path class="cls-1" d="M87.69,57.08c-2.15,3.87-2.17,10.31,1.7,14.22,4.47,4.52,12.65,4.23,16.62,1.18,2-1.53,3.64-3.74,6.11-4.32,2.39-.56,3.78,1.29,5.81,2.66s3.94,3.01,6.32,3.65c3.2,.85,6.79-.41,8.99-2.82,1.31-1.43,2.15-3.21,2.55-5.1,.36-1.7,.3-3.46-.11-5.15h0c-.32-1.31-.85-2.56-1.58-3.7l-5.92-11.63c-.6-.94-1.22-1.9-2.09-2.6-.87-.71-2.06-1.14-3.16-.86-1.79,.46-2.56,2.45-3.26,4.11-.7,1.67-2.1,3.53-3.92,3.2-1.49-.26-2.27-1.84-2.81-3.22-1.05-2.68-2.1-5.37-3.15-8.05-.46-1.17-.93-2.35-1.73-3.32-.81-.97-2.02-1.7-3.3-1.63-1.86,.1-3.18,1.9-4.27,3.48-5.51,7.95-9.42,14.64-12.3,19.12-.3,.47-.36,.56-.49,.79Z"/>
  </g>
  <g>
    <path class="cls-1" d="M7.16,143.4c-.9,0-1.48-.5-1.75-1.49-.27-.99-.44-2.04-.49-3.13,0-.6-.32-3.43-.97-8.51-.9-6.91-1.64-26.16-2.24-33.28,0-1.59,.67-2.76,2.01-3.51,1.34-.75,2.71-1.29,4.1-1.64,.05-.05,.12-.07,.22-.07,.65-.2,1.24-.3,1.79-.3,1.29,0,2.2,.72,2.72,2.16,.52,1.44,.81,15.82,.86,18.65l.03,.52c.02,.34,.36,.57,.69,.47,.65-.21,1.25-.39,1.82-.54,1.39-.35,2.45-.8,3.17-1.34,.72-.55,1.08-1.42,1.08-2.61v-.52c-.45-6.57-.67-10.67-.67-12.31,0-1.29,.15-2.15,.45-2.57,.3-.42,.9-.68,1.79-.78,3.88-.7,6.67-1.07,8.36-1.12,1.74,0,2.79,.5,3.13,1.49,.25,.75,.37,1.87,.37,3.36l-.07,2.16c0,9.75,.17,22.71,.52,38.87,0,.85-.09,1.57-.26,2.16-.17,.6-.63,.97-1.38,1.12-2.44,.55-4.38,.82-5.82,.82-1.34,0-2.41-.34-3.21-1.01-.8-.67-1.27-3.34-1.42-8.02l-.07-2.69c-.05-.9-.11-1.78-.19-2.65-.07-.87-.22-1.54-.45-2.01-.22-.47-.54-.71-.93-.71l-.3,.07c-1.09,.2-2.16,.55-3.21,1.04-.8,.35-1.19,.97-1.19,1.87,0,1.24,.12,2.94,.37,5.07,.4,3.38,.6,5.5,.6,6.34,0,.7-.05,1.19-.15,1.49-.4,.65-2.24,1.42-5.52,2.31-2.04,.55-3.31,.82-3.81,.82Z"/>
    <path class="cls-1" d="M61.32,146.91c-1.59,0-2.61-.37-3.06-1.12-.25-.45-.37-1.17-.37-2.16,0-1.14,.17-2.69,.52-4.63-3.83,2.89-7.11,4.33-9.85,4.33-1.74,0-3.81-1.02-6.19-3.06-2.39-2.04-3.95-7.26-4.7-15.67-.25-2.69-.37-5.55-.37-8.58,0-6.42,.57-13.58,1.72-21.49,.05-1.24,.42-2.03,1.12-2.35,.7-.32,1.99-.49,3.88-.49,.9,0,1.72-.02,2.46-.07l1.42-.07c1.74,0,2.86,.32,3.36,.97,.2,.3,.3,.77,.3,1.42,0,1.19-.35,3.03-1.04,5.52-1.64,6.57-2.46,12.66-2.46,18.28,0,4.63,.6,8.16,1.79,10.6,.65,1.24,1.32,1.87,2.01,1.87,.9,0,2.08-1.39,3.54-4.18,1.47-2.79,2.95-10.87,4.44-24.25,.25-1.04,1.19-1.81,2.84-2.31,1.04-.35,2.09-.52,3.13-.52,.6,0,1.43,.1,2.5,.3,1.07,.2,1.6,.95,1.6,2.24-.7,9.65-1.04,18.46-1.04,26.41l.07,5.52v6.04c0,2.09-.07,3.71-.22,4.85-.15,1.14-.61,1.85-1.38,2.13-.77,.27-1.9,.41-3.39,.41h-1.42l-1.19,.07Z"/>
    <path class="cls-1" d="M77.14,143.47h-.67c-1.59,0-2.62-.19-3.1-.56-.47-.37-.71-.98-.71-1.83,0-.94,.22-5.62,.67-14.03,.65-12.83,1.27-23.5,1.87-32.01,.05-.8,.37-1.47,.97-2.01,.6-.55,1.32-.87,2.16-.97,4.72-.35,9.72-.52,15-.52,4.38,0,6.72,.25,7.01,.75,.2,.8,.3,1.97,.3,3.51,0,3.53-.85,5.35-2.54,5.45-4.58,0-7.47,.05-8.69,.15-1.22,.1-2.01,.4-2.39,.9-.37,.5-.56,1.32-.56,2.46l-.15,2.16c-.1,1.15-.15,2.11-.15,2.91,0,.5,.02,1.08,.07,1.75,.05,.67,.67,1.01,1.87,1.01,.55,0,1.24-.05,2.09-.15,1.39-.2,3.36-.35,5.89-.45,.94,.1,1.72,.96,2.31,2.57,.6,1.62,.9,3.3,.9,5.04-.05,1.79-.5,2.98-1.34,3.58-1.19,.6-2.56,.92-4.1,.97l-2.39,.07-4.85-.15c-.5,.05-.9,.47-1.19,1.27-.55,1.29-.82,2.94-.82,4.92,0,1.19,.2,1.82,.6,1.87,4.33-.15,8.83-.37,13.51-.67,.6,0,1.06,.54,1.38,1.6,.32,1.07,.49,2.35,.49,3.84s-.17,2.74-.52,3.88c-.35,1.14-.87,1.77-1.57,1.86-3.63,.35-7.24,.52-10.82,.52h-1.34c-3.03,.05-6.09,.15-9.18,.3Z"/>
    <path class="cls-1" d="M126.76,143.47h-4.25c-.85-.05-2.24-.07-4.18-.07h-8.28c-3.58,0-5.5-.4-5.74-1.19-.2-.45-.3-1.07-.3-1.87,0-13.48-.07-22.98-.22-28.5l-.07-11.12c0-2.69,.11-4.61,.34-5.78,.22-1.17,.62-1.91,1.19-2.24,.57-.32,1.35-.51,2.35-.56l1.04-.07c1.64-.25,3.48-.37,5.52-.37,.7,.05,1.09,.55,1.19,1.49,.35,6.07,.52,12.11,.52,18.13,0,2.04-.03,4.05-.07,6.04v10.74c0,1,.11,1.63,.34,1.9,.22,.27,.56,.41,1.01,.41s1.04-.1,1.79-.3l2.76-.82c3.08-.99,5.4-1.49,6.94-1.49,.45,0,1.12,.12,2.01,.37,.9,.25,1.34,2.91,1.34,7.98,0,1.09-.06,2.35-.19,3.77-.12,1.42-.54,2.35-1.23,2.8-1.09,.45-2.36,.7-3.81,.75Z"/>
    <path class="cls-1" d="M156.76,143.47h-4.25c-.85-.05-2.24-.07-4.18-.07h-8.28c-3.58,0-5.5-.4-5.74-1.19-.2-.45-.3-1.07-.3-1.87,0-13.48-.07-22.98-.22-28.5l-.07-11.12c0-2.69,.11-4.61,.34-5.78,.22-1.17,.62-1.91,1.19-2.24,.57-.32,1.35-.51,2.35-.56l1.04-.07c1.64-.25,3.48-.37,5.52-.37,.7,.05,1.09,.55,1.19,1.49,.35,6.07,.52,12.11,.52,18.13,0,2.04-.03,4.05-.07,6.04v10.74c0,1,.11,1.63,.34,1.9,.22,.27,.56,.41,1.01,.41s1.04-.1,1.79-.3l2.76-.82c3.08-.99,5.4-1.49,6.94-1.49,.45,0,1.12,.12,2.01,.37,.9,.25,1.34,2.91,1.34,7.98,0,1.09-.06,2.35-.19,3.77-.12,1.42-.54,2.35-1.23,2.8-1.09,.45-2.36,.7-3.81,.75Z"/>
    <path class="cls-1" d="M211.89,143.62c-1.54,0-3.16-.2-4.85-.6-3.93-1.24-6.64-3.81-8.13-7.69-.75-1.99-1.12-3.95-1.12-5.89s.35-3.78,1.04-5.67c.35-.85,.82-1.34,1.42-1.49,.4-.15,.94-.22,1.64-.22l1.12,.07c2.59,0,4.3,.35,5.15,1.04,.85,.7,1.44,1.37,1.79,2.01,.6,.95,1.17,1.42,1.72,1.42,.3,0,.67-.1,1.12-.3,1.59-.75,2.39-1.82,2.39-3.21,0-.05-.01-.45-.04-1.19-.03-.75-1.21-1.74-3.54-2.98l-1.57-.75c-2.84-1.24-5.21-2.6-7.13-4.07-1.92-1.47-3.25-3.64-3.99-6.53-.25-1.14-.37-2.24-.37-3.28,0-2.54,.86-4.95,2.57-7.24,1.72-2.29,4.32-3.98,7.8-5.07,2.19-.7,4.4-1.04,6.64-1.04,1.29,0,2.61,.12,3.95,.37,3.33,.6,5.77,1.64,7.31,3.13,1.54,1.49,2.51,3.76,2.91,6.79,.05,.45,.07,.97,.07,1.57,0,3.83-.55,6.67-1.64,8.51-.35,.55-.77,.82-1.27,.82-.6,0-1.32-.42-2.16-1.27-.85-1.04-1.67-2.26-2.46-3.66-1.84-3.43-3.46-5.15-4.85-5.15-.55,0-1.11,.19-1.68,.56-.57,.37-.86,.88-.86,1.53,0,.6,.38,1.52,1.16,2.76,.77,1.24,2.62,3.53,5.56,6.86l2.84,3.36c2.34,2.98,3.51,6.19,3.51,9.63,0,.95-.25,2.8-.75,5.56-.5,2.76-2.59,5.53-6.27,8.32-2.54,1.99-5.55,2.98-9.03,2.98Z"/>
    <path class="cls-1" d="M195.73,125.72c-1.34-10.6-3.46-21.36-6.34-32.31-.25-.6-1.09-1.03-2.54-1.31-1.44-.27-2.94-.41-4.48-.41-2.74,0-5.07,.37-7.01,1.12-1.69,.65-2.71,1.64-3.06,2.98l-2.69,12.53c-2.49,10.99-4.65,22.19-6.49,33.58,.25,.8,.88,1.27,1.9,1.42,1.02,.15,1.95,.22,2.8,.22h1.57l.6,.07c.35,0,.67-.07,.97-.22,.94-.4,1.89-2.49,2.84-6.27,.99-4.08,1.74-7.76,2.24-11.04,.2-1.69,.52-2.77,.97-3.25,.45-.47,1.17-.71,2.16-.71h.02c1.23,0,2.22,1.04,2.22,2.27,.02,6.69,.17,11.53,.44,14.52,.2,2.74,.75,4.25,1.64,4.55,.3,.1,1.52,.15,3.66,.15,3.43,0,6.37-.37,8.8-1.12,1.39-.45,2.09-1.09,2.09-1.94-.85-5.02-1.62-9.97-2.31-14.85Zm-13.77-23.24c.92,0,1.66,.94,1.66,2.1,0,1.16-.74,2.1-1.66,2.1-.92,0-1.66-.94-1.66-2.1,0-1.16,.74-2.1,1.66-2.1Zm-5.53,1.15c.84-.37,1.9,.2,2.36,1.26s.16,2.22-.68,2.59c-.84,.37-1.9-.2-2.36-1.26-.46-1.06-.16-2.22,.68-2.59Zm-.17,7.05c-.52,.53-1.48,.42-2.15-.24s-.79-1.62-.27-2.15,1.48-.42,2.15,.24c.67,.66,.79,1.62,.27,2.15Zm8.34,2.8c-.26,.45-.78,.76-1.31,.73-.39-.02-.74-.22-1.1-.36-.36-.15-.64-.39-.99-.22-.37,.17-.55,.57-.81,.87-.52,.6-1.78,.91-2.63,.36-.73-.48-.94-1.49-.73-2.16,.01-.04,.02-.06,.05-.14,.3-.79,.69-1.96,1.29-3.38,.12-.28,.27-.6,.55-.68,.2-.05,.41,.02,.57,.15,.16,.12,.27,.29,.38,.46,.25,.38,.5,.77,.75,1.15,.13,.2,.3,.42,.54,.41,.29,0,.45-.34,.51-.63,.05-.28,.11-.62,.37-.75,.16-.08,.36-.05,.52,.03,.16,.08,.29,.21,.41,.34l1.3,1.62c.15,.15,.27,.33,.37,.53,.12,.25,.19,.52,.19,.8,0,.31-.07,.61-.23,.88Zm2.22-5.69c-.35,.87-1.19,1.35-1.88,1.08-.69-.28-.96-1.2-.62-2.07,.35-.87,1.19-1.35,1.88-1.08,.69,.28,.96,1.2,.62,2.07Z"/>
  </g>
  <g>
    <path class="cls-2" d="M69.88,154.97c-1.39-1.34-3.59-2.29-6.59-2.82-1.21-.22-2.4-.34-3.56-.34-2.02,0-4.01,.31-5.98,.94-3.14,.99-5.48,2.51-7.03,4.57-1.55,2.06-2.32,4.24-2.32,6.52,0,.94,.11,1.93,.34,2.96,.67,2.6,1.87,4.56,3.6,5.88,1.73,1.32,3.87,2.54,6.42,3.66l1.41,.67c2.11,1.12,3.17,2.02,3.19,2.69,.02,.67,.03,1.03,.03,1.08,0,1.26-.72,2.22-2.15,2.89-.4,.18-.74,.27-1.01,.27-.49,0-1.01-.43-1.55-1.28-.31-.58-.85-1.19-1.61-1.82-.76-.63-2.31-.94-4.64-.94l-1.01-.07c-.63,0-1.12,.07-1.48,.2-.54,.13-.96,.58-1.28,1.34-.63,1.7-.94,3.41-.94,5.11s.34,3.52,1.01,5.31c1.34,3.5,3.79,5.8,7.33,6.92,1.52,.36,2.98,.54,4.37,.54,3.14,0,5.85-.9,8.13-2.69,3.32-2.51,5.2-5.01,5.65-7.5,.45-2.49,.67-4.16,.67-5.01,0-3.09-1.05-5.98-3.16-8.67l-2.55-3.03c-2.65-3-4.31-5.06-5.01-6.18-.7-1.12-1.04-1.95-1.04-2.49,0-.58,.26-1.04,.77-1.38,.51-.34,1.02-.5,1.51-.5,1.25,0,2.71,1.55,4.37,4.64,.72,1.25,1.46,2.35,2.22,3.29,.76,.76,1.41,1.14,1.95,1.14,.45,0,.83-.25,1.14-.74,.99-1.66,1.48-4.21,1.48-7.66,0-.54-.02-1.01-.07-1.41-.36-2.73-1.23-4.77-2.62-6.12Z"/>
    <path class="cls-2" d="M94.15,172.17l.33-5.54s.02,0,.04,0c3.53,0,6.4-2.86,6.4-6.4s-2.86-6.4-6.4-6.4c-2.22,0-4.17,1.13-5.32,2.85-.86-2.52-3.24-4.33-6.05-4.33-3.53,0-6.4,2.86-6.4,6.4s2.86,6.4,6.4,6.4c.05,0,.09,0,.14,0v1.4c-.09,7.17-.13,9.45-.13,19.36v1.5c-.42-.09-.86-.13-1.3-.13-3.53,0-6.4,2.86-6.4,6.4s2.86,6.4,6.4,6.4c2.73,0,5.05-1.71,5.97-4.11,1.13,1.79,3.13,2.98,5.4,2.98,3.53,0,6.4-2.86,6.4-6.4s-2.86-6.4-6.4-6.4c-.03,0-.07,0-.1,0,.02-.48,.04-.98,.05-1.51,.36-10.49,.67-7.07,.99-12.45Z"/>
    <path class="cls-2" d="M117.28,164.25c0-1.03,.17-1.77,.5-2.22,.34-.45,1.05-.72,2.15-.81,1.1-.09,3.71-.13,7.83-.13,1.52-.09,2.29-1.72,2.29-4.91,0-1.39-.09-2.44-.27-3.16-.27-.45-2.38-.67-6.32-.67-4.75,0-9.26,.16-13.51,.47-.76,.09-1.41,.38-1.95,.87-.54,.49-.83,1.1-.87,1.82-.54,7.66-1.1,17.28-1.68,28.84-.4,7.58-.6,11.79-.6,12.64,0,.76,.21,1.31,.64,1.65,.43,.34,1.35,.5,2.79,.5h.61c2.78-.13,5.53-.22,8.27-.27h1.21c3.23,0,6.48-.16,9.75-.47,.63-.09,1.1-.65,1.41-1.68,.31-1.03,.47-2.2,.47-3.5s-.15-2.5-.44-3.46c-.29-.96-.71-1.44-1.24-1.44-4.21,.27-8.27,.47-12.17,.61-.36-.04-.54-.61-.54-1.68,0-1.79,.25-3.27,.74-4.44,.27-.72,.63-1.1,1.08-1.14l4.37,.13,2.15-.07c1.39-.04,2.62-.34,3.7-.87,.76-.54,1.16-1.61,1.21-3.23,0-1.57-.27-3.08-.81-4.54-.54-1.46-1.23-2.23-2.08-2.32-2.29,.09-4.06,.22-5.31,.4-.76,.09-1.39,.13-1.88,.13-1.08,0-1.64-.3-1.68-.91-.05-.61-.07-1.13-.07-1.58,0-.72,.04-1.59,.13-2.62l.13-1.95Z"/>
    <path class="cls-2" d="M159.16,155.48c-3.41-2.4-7.37-3.6-11.9-3.6l-2.42,.07c-5.78,.85-8.81,2.42-9.08,4.71l-1.82,17.41c-.81,6.99-1.52,13.87-2.15,20.64-.09,.81-.13,1.48-.13,2.02,0,.81,.11,1.34,.34,1.61,.4,.45,1.61,.67,3.63,.67l2.29,.07c1.34,0,2.38-.07,3.09-.2,1.08-.13,1.7-.58,1.88-1.34,.18-.76,.27-1.66,.27-2.69l-.07-2.15v-3.7l4.03,4.03c3.09,3.41,5.09,5.19,5.98,5.35,.9,.16,1.43,.23,1.61,.23,1.66,0,3.97-1.43,6.92-4.3,.04-.04,.07-.11,.07-.2,0-.31-.4-.92-1.21-1.82-1.84-1.84-4.77-4.44-8.81-7.8-3.14-2.64-4.71-4.03-4.71-4.17l.07-.07c7.48-.49,12.48-2.08,14.99-4.77,2.51-2.69,3.77-5.42,3.77-8.2,0-.85-.09-1.7-.27-2.55-.85-3.76-2.98-6.85-6.39-9.24Zm-6.35,11.29c-.56,.47-1.26,.89-2.08,1.24-.83,.36-1.56,.54-2.18,.54l-.74-.07c-.76-.22-1.14-1.01-1.14-2.35,0-.22,.09-.85,.27-1.88,.04-.45,.18-.72,.4-.81,.4-.13,.87-.2,1.41-.2,.49,0,1.05,.07,1.68,.2,1.21,.22,2.05,.54,2.52,.94s.71,.76,.71,1.08c0,.4-.28,.84-.84,1.31Z"/>
    <path class="cls-2" d="M197.01,175.48c2.51-2.69,3.76-5.42,3.76-8.2,0-.85-.09-1.7-.27-2.55-.85-3.76-2.98-6.85-6.39-9.24-3.41-2.4-7.37-3.6-11.9-3.6l-2.42,.07c-5.78,.85-8.81,2.42-9.08,4.71l-1.82,17.41c-.81,6.99-1.52,13.87-2.15,20.64-.09,.81-.13,1.48-.13,2.02,0,.81,.11,1.34,.34,1.61,.4,.45,1.61,.67,3.63,.67l2.29,.07c1.34,0,2.38-.07,3.09-.2,1.08-.13,1.7-.58,1.88-1.34,.18-.76,.27-1.66,.27-2.69l-.07-2.15v-3.7l4.03,4.03c3.09,3.41,5.09,5.19,5.98,5.35,.9,.16,1.43,.23,1.61,.23,1.66,0,3.97-1.43,6.92-4.3,.04-.04,.07-.11,.07-.2,0-.31-.4-.92-1.21-1.82-1.84-1.84-4.77-4.44-8.81-7.8-3.14-2.64-4.71-4.03-4.71-4.17l.07-.07c7.48-.49,12.48-2.08,14.99-4.77Zm-15.4-9.34c0-.22,.09-.85,.27-1.88,.04-.45,.18-.72,.4-.81,.4-.13,.87-.2,1.41-.2,.49,0,1.05,.07,1.68,.2,1.21,.22,2.05,.54,2.52,.94s.71,.76,.71,1.08c0,.4-.28,.84-.84,1.31-.56,.47-1.25,.89-2.08,1.24-.83,.36-1.56,.54-2.18,.54l-.74-.07c-.76-.22-1.14-1.01-1.14-2.35Z"/>
    <path class="cls-2" d="M228.15,182.63c-1.26-9.95-3.25-20.07-5.96-30.35-.23-.56-1.03-.97-2.38-1.23-1.36-.26-2.76-.39-4.21-.39-2.57,0-4.77,.35-6.59,1.05-1.59,.61-2.55,1.54-2.87,2.8l-2.52,11.78c-2.34,10.33-4.37,20.84-6.1,31.54,.23,.75,.83,1.19,1.79,1.33,.96,.14,1.83,.21,2.63,.21h1.47l.56,.07c.33,0,.63-.07,.91-.21,.89-.37,1.78-2.34,2.66-5.89,.93-3.83,1.64-7.29,2.1-10.37,.19-1.59,.49-2.6,.91-3.05,.42-.44,1.1-.67,2.03-.67h.02c1.16,0,2.08,.97,2.09,2.13,.02,6.29,.16,10.83,.42,13.64,.19,2.57,.7,4,1.54,4.28,.28,.09,1.43,.14,3.43,.14,3.22,0,5.98-.35,8.27-1.05,1.31-.42,1.96-1.03,1.96-1.82-.8-4.72-1.52-9.37-2.17-13.95Zm-14.76-22.15c.86,.04,1.52,.95,1.47,2.04-.05,1.09-.78,1.94-1.64,1.9-.86-.04-1.52-.95-1.47-2.04,.05-1.09,.78-1.94,1.64-1.9Zm-4.78,4.79c-.29-.83,0-1.69,.66-1.92,.66-.23,1.43,.26,1.72,1.09,.29,.83,0,1.69-.66,1.92-.66,.23-1.43-.26-1.72-1.09Zm8.15,6.25c-.13,.26-.31,.49-.56,.64-.41,.27-.97,.32-1.41,.08-.32-.18-.54-.49-.78-.76-.24-.27-.38-.59-.74-.6-.38,0-.7,.25-1.05,.4-.69,.29-1.88,.03-2.36-.79-.42-.71-.18-1.64,.28-2.12,.03-.03,.04-.04,.1-.1,.58-.54,1.4-1.37,2.49-2.32,.22-.19,.47-.4,.75-.35,.19,.04,.34,.19,.42,.36,.08,.17,.1,.36,.13,.55,.05,.43,.11,.85,.16,1.28,.03,.22,.08,.48,.29,.57,.25,.11,.52-.1,.69-.32s.35-.48,.62-.48c.17,0,.33,.11,.43,.24,.1,.13,.15,.3,.21,.45l.43,1.9c.06,.19,.09,.39,.09,.59,0,.26-.06,.52-.17,.75Zm.03-6.19c-.77-.38-1.01-1.48-.53-2.46,.48-.98,1.49-1.46,2.27-1.09,.77,.38,1.01,1.48,.53,2.46-.48,.98-1.49,1.46-2.27,1.09Zm3.63,2.95c-.65,.59-1.56,.65-2.03,.13-.47-.52-.32-1.41,.34-2,.65-.59,1.56-.65,2.03-.13,.47,.52,.32,1.41-.34,2Z"/>
  </g>
  <g>
    <path class="cls-2" d="M18.03,155.62c.07-1.81-.31-2.39-2.66-2.52-1.29-.07-2.15,.27-2.38,2.32l-.44,4.43c-.89-.68-2.01-.99-3.13-.99-4.6,0-6.98,4.63-6.78,8.76,.24,3.95,2.79,6.58,5.86,6.58,1.09,0,2.28-.34,3.41-1.09,.2,1.57,1.7,1.98,2.96,1.84,.85-.14,2.11-.34,2.01-1.74-.17-2.04,1.02-12.71,1.16-17.58Zm-6.1,12.71c-.37,.58-1.23,.95-2.11,.95-1.12,0-2.25-.61-2.25-2.25,0-1.36,.82-3.34,2.69-3.34,.72,0,1.6,.41,1.91,1.16-.07,1.02-.17,2.45-.24,3.48Z"/>
    <path class="cls-2" d="M32.07,169.25c-.65,.03-1.36,.24-2.08,.34-.61,.1-1.23,.14-1.81,.14-1.6,0-2.93-.44-3.24-2.25,.75,.31,1.67,.41,2.59,.41,1.98,0,3.95-.55,4.4-1.09,.95-.68,1.29-3.07,.51-4.74-.89-1.87-3.34-2.52-5.49-2.25-3.95,.48-7.36,3.34-6.75,8.35,.48,3.82,3.34,5.52,6.41,5.52,1.4,0,4.63,.03,6.44-1.29,.75-.58,.34-3.24-.99-3.13Zm-4.02-6.41c1.23-.03,1.87,1.23,.85,1.7-.34,.17-.82,.24-1.33,.24-.99,0-2.04-.24-2.04-.24,.48-.95,1.29-1.67,2.52-1.7Z"/>
    <path class="cls-2" d="M14.15,195.8c-.44-.03-1.02-.03-1.64-.07-1.02-.03-1.16-.37-1.23-1.19-.27-4.77-.27-9.27-.68-14-.1-1.02-.65-1.67-2.96-1.6-1.02,.03-2.45,.51-2.45,1.7l.61,14.92c.1,2.01,.55,3.1,1.23,3.68,.58,.48,2.66,.75,4.53,.75,1.26,0,2.42-.1,2.96-.37,.78-.37,.99-1.19,.99-2.08-.03-1.4-.51-1.64-1.36-1.74Z"/>
    <path class="cls-2" d="M23.48,184.11c-1.43,0-3,.34-4.67,1.16-2.21,1.06-1.09,4.22,.2,3.61,1.57-.68,3.65-1.09,5.08-.92,1.09,.17,1.81,.65,1.67,1.6-.72-.2-1.6-.34-2.56-.34-3.07,0-6.68,1.33-6.41,5.69,.2,3.34,2.45,4.77,4.94,4.77,1.53,0,3.2-.55,4.53-1.53-.03,1.09,0,1.91,1.36,1.91,.78,0,3.17-.2,3.17-1.26,0-.72-.17-1.4-.17-2.11,0-2.04,.17-4.12,.17-6.17,0-3.85-3.75-6.41-7.33-6.41Zm-.34,11.24c-1.87,.17-2.62-.61-1.67-1.7,.44-.51,1.26-.75,2.15-.75,.82,0,1.67,.2,2.35,.55l.03,.95s-1.19,.82-2.86,.95Z"/>
  </g>
  <g>
    <path class="cls-1" d="M11.27,219.67c-.44,.22-1.35,.46-2.51,.46-2.33,0-4.34-1.4-4.34-4.15,0-2.21,1.65-4.25,4.64-4.25,1.2,0,1.91,.27,2.21,.41l-.23,.65c-.47-.23-1.18-.4-1.94-.4-2.47,0-3.84,1.49-3.84,3.61,0,1.92,1.29,3.45,3.73,3.45,.77,0,1.55-.15,2.09-.41l.2,.63Z"/>
    <path class="cls-1" d="M18.74,211.87h.8v7.44h3.95v.67h-4.76v-8.11Z"/>
    <path class="cls-1" d="M32.86,210.03l-1.57,1.41h-.66l1.13-1.41h1.09Zm-1.29,1.84v8.11h-.8v-8.11h.8Z"/>
    <path class="cls-1" d="M39.63,219.98v-8.11h.84l3.37,4.66c.72,1,1.2,1.69,1.62,2.46l.03-.02c-.09-.97-.1-1.94-.1-3.17v-3.93h.77v8.11h-.79l-3.29-4.55c-.66-.94-1.28-1.82-1.72-2.59l-.04,.02c.06,.95,.07,1.86,.07,3.07v4.06h-.77Z"/>
    <path class="cls-1" d="M55.03,211.87v8.11h-.8v-8.11h.8Z"/>
    <path class="cls-1" d="M69.38,219.67c-.44,.22-1.35,.46-2.51,.46-2.33,0-4.34-1.4-4.34-4.15,0-2.21,1.65-4.25,4.64-4.25,1.2,0,1.91,.27,2.21,.41l-.23,.65c-.47-.23-1.18-.4-1.94-.4-2.47,0-3.84,1.49-3.84,3.61,0,1.92,1.29,3.45,3.73,3.45,.77,0,1.55-.15,2.09-.41l.2,.63Z"/>
    <path class="cls-1" d="M78.06,217.24l-1.04,2.74h-.84l3.18-8.11h.9l3.18,8.11h-.86l-1.07-2.74h-3.45Zm3.24-.64l-1.05-2.67c-.21-.53-.32-.91-.45-1.32h-.02c-.12,.42-.25,.81-.44,1.29l-1.06,2.7h3.02Z"/>
    <path class="cls-1" d="M101.05,219.98l-2.94-8.11h.86l1.52,4.29c.43,1.21,.76,2.15,1.01,3.02h.02c.27-.87,.66-1.87,1.12-3.01l1.71-4.31h.86l-3.31,8.11h-.85Z"/>
    <path class="cls-1" d="M116.43,216.05h-3.57v3.26h3.98v.66h-4.78v-8.11h4.58v.66h-3.77v2.86h3.57v.66Z"/>
    <path class="cls-1" d="M126.4,212.54h-2.93v-.67h6.66v.67h-2.93v7.44h-.8v-7.44Z"/>
    <path class="cls-1" d="M141.35,216.05h-3.57v3.26h3.98v.66h-4.78v-8.11h4.58v.66h-3.77v2.86h3.57v.66Z"/>
    <path class="cls-1" d="M149.27,211.98c.56-.11,1.38-.18,2.09-.18,1.18,0,1.93,.23,2.44,.71,.37,.33,.61,.88,.61,1.47,0,1.07-.71,1.8-1.64,2.09v.03c.65,.23,1.06,.83,1.26,1.62,.3,1.22,.48,1.93,.67,2.27h-.84c-.13-.23-.32-.92-.55-1.94-.26-1.14-.77-1.64-1.83-1.69h-1.4v3.63h-.8v-8Zm.8,3.75h1.45c1.28,0,2.08-.66,2.08-1.65,0-1.21-.99-1.65-2.23-1.65-.64,0-1.09,.07-1.31,.12v3.18Z"/>
    <path class="cls-1" d="M162.86,211.87v8.11h-.8v-8.11h.8Z"/>
    <path class="cls-1" d="M170.92,219.98v-8.11h.84l3.37,4.66c.72,1,1.2,1.69,1.62,2.46l.03-.02c-.09-.97-.1-1.94-.1-3.17v-3.93h.77v8.11h-.79l-3.29-4.55c-.66-.94-1.28-1.82-1.72-2.59l-.04,.02c.06,.95,.07,1.86,.07,3.07v4.06h-.77Z"/>
    <path class="cls-1" d="M186.72,217.24l-1.04,2.74h-.84l3.18-8.11h.9l3.18,8.11h-.86l-1.07-2.74h-3.45Zm3.24-.64l-1.05-2.67c-.21-.53-.32-.91-.45-1.32h-.02c-.12,.42-.25,.81-.44,1.29l-1.06,2.7h3.02Z"/>
    <path class="cls-1" d="M199.38,211.98c.56-.11,1.38-.18,2.09-.18,1.18,0,1.93,.23,2.44,.71,.37,.33,.61,.88,.61,1.47,0,1.07-.71,1.8-1.64,2.09v.03c.65,.23,1.06,.83,1.26,1.62,.3,1.22,.48,1.93,.67,2.27h-.84c-.13-.23-.32-.92-.55-1.94-.26-1.14-.77-1.64-1.83-1.69h-1.4v3.63h-.8v-8Zm.8,3.75h1.45c1.28,0,2.08-.66,2.08-1.65,0-1.21-.99-1.65-2.23-1.65-.64,0-1.09,.07-1.31,.12v3.18Z"/>
    <path class="cls-1" d="M212.97,211.87v8.11h-.8v-8.11h.8Z"/>
    <path class="cls-1" d="M222.24,217.24l-1.04,2.74h-.84l3.18-8.11h.9l3.18,8.11h-.86l-1.07-2.74h-3.45Zm3.24-.64l-1.05-2.67c-.21-.53-.32-.91-.45-1.32h-.02c-.12,.42-.25,.81-.44,1.29l-1.06,2.7h3.02Z"/>
  </g>
</svg>