<?xml version="1.0" encoding="UTF-8"?>
<svg id="Capa_1" data-name="Capa 1" xmlns="http://www.w3.org/2000/svg" viewBox="0 0 235.23 225.42">
  <defs>
    <style>
      .cls-1 {
        fill: #fff;
      }

      .cls-2 {
        fill: #224982;
      }

      .cls-3 {
        fill: #40e391;
      }
    </style>
  </defs>
  <circle class="cls-2" cx="114.82" cy="36.32" r="36.32"/>
  <g>
    <g>
      <ellipse class="cls-1" cx="106.91" cy="23.66" rx="5.48" ry="6.93" transform="translate(-2.58 22.31) rotate(-11.77)"/>
      <ellipse class="cls-1" cx="97.08" cy="34.9" rx="4.43" ry="5.6" transform="translate(-3.1 59.55) rotate(-33.6)"/>
    </g>
    <g>
      <ellipse class="cls-1" cx="122.74" cy="23.66" rx="6.93" ry="5.48" transform="translate(74.53 138.99) rotate(-78.23)"/>
      <ellipse class="cls-1" cx="132.57" cy="34.9" rx="5.6" ry="4.43" transform="translate(30.14 126.01) rotate(-56.4)"/>
    </g>
    <path class="cls-1" d="M101.31,46.58c-1.13,2.04-1.14,5.42,.89,7.47,2.35,2.38,6.65,2.22,8.73,.62,1.05-.81,1.91-1.96,3.21-2.27,1.26-.3,1.99,.68,3.05,1.4s2.07,1.58,3.32,1.92c1.68,.45,3.57-.21,4.73-1.48,.69-.75,1.13-1.69,1.34-2.68,.19-.89,.16-1.82-.06-2.71h0c-.17-.69-.45-1.35-.83-1.95l-3.11-6.11c-.32-.49-.64-1-1.1-1.37-.46-.37-1.08-.6-1.66-.45-.94,.24-1.35,1.29-1.71,2.16-.37,.88-1.1,1.85-2.06,1.68-.78-.14-1.19-.97-1.48-1.69-.55-1.41-1.1-2.82-1.66-4.23-.24-.61-.49-1.24-.91-1.75-.42-.51-1.06-.9-1.73-.86-.97,.05-1.67,1-2.25,1.83-2.9,4.18-4.95,7.7-6.46,10.05-.16,.25-.19,.29-.26,.41Z"/>
  </g>
  <g>
    <path class="cls-2" d="M10.46,225.1c-.46,.23-1.4,.47-2.6,.47-2.41,0-4.5-1.45-4.5-4.3,0-2.28,1.7-4.4,4.81-4.4,1.25,0,1.98,.28,2.28,.42l-.24,.68c-.49-.24-1.22-.41-2.01-.41-2.56,0-3.98,1.54-3.98,3.73,0,1.99,1.33,3.57,3.86,3.57,.8,0,1.61-.16,2.16-.43l.21,.65Z"/>
    <path class="cls-2" d="M18.2,217.03h.83v7.7h4.09v.69h-4.92v-8.4Z"/>
    <path class="cls-2" d="M32.82,215.12l-1.62,1.46h-.68l1.17-1.46h1.13Zm-1.33,1.9v8.4h-.83v-8.4h.83Z"/>
    <path class="cls-2" d="M39.83,225.42v-8.4h.87l3.49,4.82c.74,1.03,1.24,1.75,1.68,2.55l.03-.02c-.1-1.01-.11-2.01-.11-3.28v-4.06h.8v8.4h-.82l-3.4-4.71c-.69-.97-1.33-1.89-1.78-2.69l-.04,.02c.06,.99,.07,1.93,.07,3.17v4.2h-.8Z"/>
    <path class="cls-2" d="M55.77,217.03v8.4h-.83v-8.4h.83Z"/>
    <path class="cls-2" d="M70.63,225.1c-.46,.23-1.4,.47-2.6,.47-2.41,0-4.5-1.45-4.5-4.3,0-2.28,1.7-4.4,4.81-4.4,1.25,0,1.98,.28,2.28,.42l-.24,.68c-.49-.24-1.22-.41-2.01-.41-2.56,0-3.98,1.54-3.98,3.73,0,1.99,1.33,3.57,3.86,3.57,.8,0,1.61-.16,2.16-.43l.21,.65Z"/>
    <path class="cls-2" d="M79.63,222.58l-1.08,2.84h-.87l3.3-8.4h.93l3.3,8.4h-.89l-1.11-2.84h-3.57Zm3.35-.66l-1.09-2.77c-.21-.55-.33-.94-.46-1.36h-.02c-.13,.43-.26,.84-.45,1.33l-1.09,2.8h3.13Z"/>
    <path class="cls-2" d="M103.43,225.42l-3.05-8.4h.89l1.58,4.45c.44,1.25,.79,2.23,1.05,3.13h.02c.28-.9,.69-1.93,1.16-3.11l1.77-4.47h.89l-3.43,8.4h-.88Z"/>
    <path class="cls-2" d="M119.35,221.36h-3.7v3.38h4.12v.69h-4.95v-8.4h4.74v.69h-3.91v2.96h3.7v.69Z"/>
    <path class="cls-2" d="M129.67,217.71h-3.03v-.69h6.9v.69h-3.04v7.71h-.83v-7.71Z"/>
    <path class="cls-2" d="M145.16,221.36h-3.7v3.38h4.12v.69h-4.95v-8.4h4.74v.69h-3.91v2.96h3.7v.69Z"/>
    <path class="cls-2" d="M153.36,217.14c.58-.11,1.43-.19,2.16-.19,1.22,0,1.99,.24,2.52,.74,.38,.34,.63,.91,.63,1.52,0,1.11-.74,1.86-1.7,2.16v.03c.67,.24,1.1,.86,1.3,1.68,.31,1.26,.5,2,.69,2.35h-.87c-.14-.24-.33-.95-.57-2.01-.27-1.18-.79-1.7-1.89-1.75h-1.45v3.76h-.83v-8.28Zm.83,3.88h1.5c1.32,0,2.16-.68,2.16-1.71,0-1.26-1.03-1.71-2.3-1.71-.66,0-1.13,.07-1.35,.13v3.29Z"/>
    <path class="cls-2" d="M167.43,217.03v8.4h-.83v-8.4h.83Z"/>
    <path class="cls-2" d="M175.78,225.42v-8.4h.87l3.49,4.82c.74,1.03,1.24,1.75,1.68,2.55l.03-.02c-.09-1.01-.11-2.01-.11-3.28v-4.06h.8v8.4h-.82l-3.4-4.71c-.69-.97-1.33-1.89-1.78-2.69l-.04,.02c.06,.99,.07,1.93,.07,3.17v4.2h-.8Z"/>
    <path class="cls-2" d="M192.13,222.58l-1.08,2.84h-.87l3.3-8.4h.93l3.3,8.4h-.89l-1.11-2.84h-3.57Zm3.35-.66l-1.09-2.77c-.21-.55-.33-.94-.46-1.36h-.02c-.13,.43-.26,.84-.45,1.33l-1.09,2.8h3.13Z"/>
    <path class="cls-2" d="M205.24,217.14c.58-.11,1.43-.19,2.16-.19,1.22,0,1.99,.24,2.52,.74,.38,.34,.63,.91,.63,1.52,0,1.11-.74,1.86-1.7,2.16v.03c.67,.24,1.1,.86,1.3,1.68,.31,1.26,.5,2,.69,2.35h-.87c-.14-.24-.33-.95-.57-2.01-.27-1.18-.79-1.7-1.89-1.75h-1.45v3.76h-.83v-8.28Zm.83,3.88h1.5c1.32,0,2.16-.68,2.16-1.71,0-1.26-1.03-1.71-2.3-1.71-.66,0-1.13,.07-1.35,.13v3.29Z"/>
    <path class="cls-2" d="M219.31,217.03v8.4h-.83v-8.4h.83Z"/>
    <path class="cls-2" d="M228.91,222.58l-1.08,2.84h-.87l3.3-8.4h.93l3.3,8.4h-.89l-1.11-2.84h-3.57Zm3.35-.66l-1.09-2.77c-.22-.55-.33-.94-.46-1.36h-.02c-.13,.43-.26,.84-.45,1.33l-1.09,2.8h3.13Z"/>
  </g>
  <g>
    <path class="cls-2" d="M5.6,145.12c-.92,0-1.52-.51-1.8-1.53-.28-1.02-.45-2.1-.5-3.22,0-.61-.33-3.53-1-8.74-.92-7.11-1.69-26.9-2.3-34.21,0-1.64,.69-2.84,2.07-3.6,1.38-.77,2.79-1.33,4.22-1.69,.05-.05,.13-.08,.23-.08,.66-.2,1.28-.31,1.84-.31,1.33,0,2.26,.74,2.8,2.22,.54,1.48,.83,16.26,.88,19.18l.03,.53c.02,.35,.37,.59,.71,.48,.67-.21,1.29-.4,1.87-.55,1.43-.36,2.52-.82,3.26-1.38,.74-.56,1.11-1.46,1.11-2.68v-.54c-.46-6.75-.69-10.97-.69-12.66,0-1.33,.15-2.21,.46-2.65,.31-.43,.92-.7,1.84-.81,3.99-.72,6.85-1.1,8.59-1.15,1.79,0,2.86,.51,3.22,1.53,.26,.77,.38,1.92,.38,3.45l-.08,2.22c0,10.02,.18,23.34,.54,39.96,0,.87-.09,1.61-.27,2.22-.18,.61-.65,1-1.42,1.15-2.51,.56-4.5,.84-5.98,.84-1.38,0-2.48-.35-3.3-1.04-.82-.69-1.3-3.44-1.46-8.25l-.08-2.76c-.05-.92-.12-1.83-.19-2.72-.08-.89-.23-1.58-.46-2.07-.23-.49-.55-.73-.96-.73l-.31,.08c-1.13,.2-2.22,.56-3.3,1.07-.82,.36-1.23,1-1.23,1.92,0,1.28,.13,3.02,.38,5.22,.41,3.48,.61,5.65,.61,6.52,0,.72-.05,1.23-.15,1.53-.41,.67-2.3,1.46-5.68,2.38-2.1,.56-3.4,.84-3.91,.84Z"/>
    <path class="cls-2" d="M61.28,148.73c-1.64,0-2.68-.38-3.14-1.15-.26-.46-.38-1.2-.38-2.22,0-1.18,.18-2.76,.54-4.76-3.94,2.97-7.31,4.45-10.12,4.45-1.79,0-3.91-1.05-6.37-3.15-2.45-2.1-4.07-7.46-4.83-16.11-.26-2.76-.38-5.7-.38-8.82,0-6.6,.59-13.96,1.76-22.09,.05-1.28,.43-2.08,1.15-2.42,.72-.33,2.04-.5,3.99-.5,.92,0,1.76-.02,2.53-.08l1.46-.08c1.79,0,2.94,.33,3.45,1,.2,.31,.31,.79,.31,1.46,0,1.23-.36,3.12-1.07,5.68-1.69,6.75-2.53,13.01-2.53,18.79,0,4.76,.61,8.39,1.84,10.89,.66,1.28,1.35,1.92,2.07,1.92,.92,0,2.13-1.43,3.64-4.3,1.51-2.86,3.03-11.17,4.56-24.93,.26-1.07,1.23-1.87,2.91-2.38,1.07-.36,2.15-.54,3.22-.54,.61,0,1.47,.1,2.57,.31,1.1,.2,1.65,.97,1.65,2.3-.72,9.92-1.07,18.97-1.07,27.15l.08,5.68v6.21c0,2.15-.08,3.81-.23,4.99-.15,1.18-.63,1.9-1.42,2.19-.79,.28-1.96,.42-3.49,.42h-1.46l-1.23,.08Z"/>
    <path class="cls-2" d="M77.55,145.2h-.69c-1.64,0-2.7-.19-3.18-.58-.49-.38-.73-1.01-.73-1.88,0-.97,.23-5.78,.69-14.42,.66-13.19,1.3-24.16,1.92-32.91,.05-.82,.38-1.51,1-2.07,.61-.56,1.35-.89,2.22-1,4.86-.36,10-.54,15.42-.54,4.5,0,6.9,.26,7.21,.77,.2,.82,.31,2.02,.31,3.61,0,3.63-.87,5.5-2.61,5.6-4.71,0-7.68,.05-8.94,.15-1.25,.1-2.07,.41-2.45,.92-.38,.51-.58,1.36-.58,2.53l-.15,2.22c-.1,1.18-.15,2.17-.15,2.99,0,.51,.02,1.11,.08,1.8,.05,.69,.69,1.04,1.92,1.04,.56,0,1.28-.05,2.15-.15,1.43-.2,3.45-.36,6.06-.46,.97,.1,1.76,.99,2.38,2.65,.61,1.66,.92,3.39,.92,5.18-.05,1.84-.51,3.07-1.38,3.68-1.23,.61-2.63,.95-4.22,1l-2.45,.08-4.99-.15c-.51,.05-.92,.49-1.23,1.3-.56,1.33-.84,3.02-.84,5.06,0,1.23,.2,1.87,.61,1.92,4.45-.15,9.08-.38,13.88-.69,.61,0,1.09,.55,1.42,1.65,.33,1.1,.5,2.42,.5,3.95s-.18,2.81-.54,3.99c-.36,1.18-.9,1.82-1.61,1.92-3.73,.36-7.44,.54-11.12,.54h-1.38c-3.12,.05-6.26,.15-9.43,.31Z"/>
    <path class="cls-2" d="M128.55,145.2h-4.37c-.87-.05-2.3-.08-4.3-.08h-8.51c-3.68,0-5.65-.41-5.91-1.23-.21-.46-.31-1.1-.31-1.92,0-13.86-.08-23.62-.23-29.3l-.08-11.43c0-2.76,.12-4.74,.35-5.94,.23-1.2,.64-1.97,1.23-2.3,.59-.33,1.39-.52,2.42-.58l1.07-.08c1.69-.26,3.58-.38,5.68-.38,.72,.05,1.12,.56,1.23,1.53,.36,6.24,.54,12.45,.54,18.64,0,2.1-.03,4.17-.08,6.21v11.05c0,1.02,.12,1.68,.34,1.96,.23,.28,.58,.42,1.04,.42s1.07-.1,1.84-.31l2.84-.84c3.17-1.02,5.55-1.53,7.13-1.53,.46,0,1.15,.13,2.07,.38,.92,.26,1.38,2.99,1.38,8.21,0,1.13-.06,2.42-.19,3.87-.13,1.46-.55,2.42-1.27,2.88-1.13,.46-2.43,.72-3.91,.77Z"/>
    <path class="cls-2" d="M159.39,145.2h-4.37c-.87-.05-2.3-.08-4.3-.08h-8.51c-3.68,0-5.65-.41-5.91-1.23-.21-.46-.31-1.1-.31-1.92,0-13.86-.08-23.62-.23-29.3l-.08-11.43c0-2.76,.12-4.74,.35-5.94,.23-1.2,.64-1.97,1.23-2.3,.59-.33,1.39-.52,2.42-.58l1.07-.08c1.69-.26,3.58-.38,5.68-.38,.72,.05,1.12,.56,1.23,1.53,.36,6.24,.54,12.45,.54,18.64,0,2.1-.03,4.17-.08,6.21v11.05c0,1.02,.12,1.68,.34,1.96,.23,.28,.58,.42,1.04,.42s1.07-.1,1.84-.31l2.84-.84c3.17-1.02,5.55-1.53,7.13-1.53,.46,0,1.15,.13,2.07,.38,.92,.26,1.38,2.99,1.38,8.21,0,1.13-.06,2.42-.19,3.87-.13,1.46-.55,2.42-1.27,2.88-1.13,.46-2.43,.72-3.91,.77Z"/>
    <path class="cls-2" d="M216.07,145.35c-1.59,0-3.25-.2-4.99-.61-4.04-1.28-6.83-3.91-8.36-7.9-.77-2.04-1.15-4.07-1.15-6.06s.36-3.89,1.07-5.83c.36-.87,.84-1.38,1.46-1.53,.41-.15,.97-.23,1.69-.23l1.15,.08c2.66,0,4.42,.36,5.29,1.07,.87,.72,1.48,1.41,1.84,2.07,.61,.97,1.2,1.46,1.76,1.46,.31,0,.69-.1,1.15-.31,1.64-.77,2.45-1.87,2.45-3.3,0-.05-.01-.46-.04-1.23-.03-.77-1.24-1.79-3.64-3.07l-1.61-.77c-2.91-1.28-5.36-2.67-7.32-4.18-1.97-1.51-3.34-3.75-4.1-6.71-.26-1.18-.38-2.3-.38-3.37,0-2.61,.88-5.09,2.65-7.44,1.76-2.35,4.44-4.09,8.02-5.22,2.25-.72,4.53-1.07,6.83-1.07,1.33,0,2.68,.13,4.07,.38,3.43,.61,5.93,1.69,7.52,3.22,1.58,1.53,2.58,3.86,2.99,6.98,.05,.46,.08,1,.08,1.61,0,3.94-.56,6.85-1.69,8.74-.36,.56-.79,.84-1.3,.84-.61,0-1.36-.43-2.22-1.3-.87-1.07-1.71-2.33-2.53-3.76-1.89-3.53-3.55-5.29-4.99-5.29-.56,0-1.14,.19-1.73,.58-.59,.38-.88,.91-.88,1.57,0,.61,.4,1.56,1.19,2.84,.79,1.28,2.7,3.63,5.71,7.06l2.91,3.45c2.4,3.07,3.61,6.37,3.61,9.89,0,.97-.26,2.88-.77,5.71-.51,2.84-2.66,5.69-6.44,8.55-2.61,2.05-5.7,3.07-9.28,3.07Z"/>
    <path class="cls-2" d="M199.46,126.94c-1.38-10.89-3.55-21.96-6.52-33.21-.26-.61-1.13-1.06-2.61-1.34-1.48-.28-3.02-.42-4.6-.42-2.81,0-5.22,.38-7.21,1.15-1.74,.67-2.79,1.69-3.14,3.07l-2.76,12.89c-2.56,11.3-4.78,22.81-6.67,34.52,.26,.82,.91,1.3,1.96,1.46,1.05,.15,2.01,.23,2.88,.23h1.61l.61,.08c.36,0,.69-.08,1-.23,.97-.41,1.94-2.56,2.91-6.44,1.02-4.19,1.79-7.98,2.3-11.35,.2-1.74,.54-2.85,1-3.34,.46-.49,1.2-.73,2.22-.73h.02c1.27,0,2.28,1.06,2.28,2.33,.03,6.88,.18,11.86,.46,14.93,.2,2.81,.77,4.37,1.69,4.68,.31,.1,1.56,.15,3.76,.15,3.53,0,6.55-.38,9.05-1.15,1.43-.46,2.15-1.12,2.15-1.99-.87-5.16-1.66-10.25-2.38-15.26Zm-14.15-23.89c.94,0,1.71,.97,1.71,2.16,0,1.19-.76,2.16-1.71,2.16-.94,0-1.71-.97-1.71-2.16,0-1.19,.76-2.16,1.71-2.16Zm-5.68,1.19c.86-.38,1.95,.2,2.43,1.3,.48,1.09,.16,2.28-.7,2.66-.86,.38-1.95-.2-2.43-1.3s-.16-2.28,.7-2.66Zm-.18,7.25c-.53,.54-1.52,.43-2.21-.24-.69-.68-.81-1.66-.27-2.21s1.52-.43,2.21,.24c.69,.68,.81,1.66,.27,2.21Zm8.57,2.87c-.27,.46-.8,.78-1.35,.75-.4-.02-.76-.22-1.13-.37-.37-.15-.65-.4-1.02-.23-.38,.18-.57,.58-.83,.9-.53,.62-1.83,.94-2.7,.37-.75-.5-.96-1.53-.75-2.22,.01-.04,.02-.06,.05-.14,.31-.81,.71-2.01,1.33-3.47,.12-.29,.27-.62,.57-.7,.2-.05,.42,.02,.58,.15,.16,.13,.28,.3,.39,.47,.26,.39,.52,.79,.77,1.18,.13,.2,.31,.43,.56,.42,.3,0,.46-.35,.52-.64,.06-.29,.11-.63,.38-.77,.17-.08,.37-.05,.53,.03,.16,.08,.29,.22,.42,.35l1.34,1.66c.16,.16,.28,.34,.38,.54,.12,.26,.19,.54,.19,.82,0,.31-.08,.63-.24,.9Zm2.28-5.84c-.36,.89-1.22,1.39-1.93,1.11-.71-.28-.99-1.24-.63-2.13,.36-.89,1.22-1.39,1.93-1.11,.71,.28,.99,1.24,.63,2.13Z"/>
  </g>
  <g>
    <path class="cls-3" d="M70.08,157.02c-1.43-1.38-3.69-2.35-6.77-2.9-1.24-.23-2.47-.35-3.66-.35-2.07,0-4.12,.32-6.15,.97-3.23,1.01-5.63,2.58-7.22,4.7-1.59,2.12-2.38,4.35-2.38,6.7,0,.97,.11,1.98,.35,3.04,.69,2.67,1.92,4.69,3.7,6.05,1.77,1.36,3.97,2.62,6.6,3.77l1.45,.69c2.16,1.15,3.26,2.07,3.28,2.76,.02,.69,.03,1.06,.03,1.11,0,1.29-.74,2.28-2.21,2.97-.41,.18-.76,.28-1.04,.28-.51,0-1.04-.44-1.59-1.31-.32-.6-.88-1.22-1.66-1.87-.78-.64-2.37-.97-4.77-.97l-1.04-.07c-.65,0-1.15,.07-1.52,.21-.55,.14-.99,.6-1.31,1.38-.65,1.75-.97,3.5-.97,5.25s.35,3.62,1.04,5.46c1.38,3.59,3.89,5.97,7.53,7.12,1.57,.37,3.06,.55,4.49,.55,3.22,0,6.01-.92,8.36-2.76,3.41-2.58,5.34-5.15,5.81-7.71,.46-2.56,.69-4.27,.69-5.15,0-3.18-1.08-6.15-3.25-8.91l-2.63-3.11c-2.72-3.09-4.44-5.21-5.15-6.36-.71-1.15-1.07-2-1.07-2.56,0-.6,.26-1.07,.79-1.42,.53-.35,1.05-.52,1.56-.52,1.29,0,2.79,1.59,4.49,4.77,.74,1.29,1.5,2.42,2.28,3.39,.78,.78,1.45,1.18,2,1.18,.46,0,.85-.25,1.18-.76,1.01-1.7,1.52-4.33,1.52-7.88,0-.55-.02-1.04-.07-1.45-.37-2.81-1.27-4.91-2.7-6.29Z"/>
    <path class="cls-3" d="M95.03,174.7l.33-5.69s.02,0,.04,0c3.63,0,6.58-2.94,6.58-6.58s-2.94-6.58-6.58-6.58c-2.28,0-4.29,1.16-5.47,2.92-.88-2.59-3.33-4.45-6.22-4.45-3.63,0-6.58,2.94-6.58,6.58s2.94,6.58,6.58,6.58c.05,0,.09,0,.14,0v1.44c-.09,7.37-.14,9.72-.14,19.9v1.54c-.43-.09-.88-.14-1.34-.14-3.63,0-6.58,2.94-6.58,6.58s2.94,6.58,6.58,6.58c2.8,0,5.19-1.76,6.14-4.23,1.17,1.84,3.21,3.06,5.55,3.06,3.63,0,6.58-2.94,6.58-6.58s-2.94-6.58-6.58-6.58c-.03,0-.07,0-.1,0,.02-.49,.04-1.01,.05-1.55,.37-10.78,.69-7.27,1.02-12.8Z"/>
    <path class="cls-3" d="M118.8,166.56c0-1.06,.17-1.82,.52-2.28,.35-.46,1.08-.74,2.21-.83,1.13-.09,3.81-.14,8.05-.14,1.57-.09,2.35-1.77,2.35-5.05,0-1.43-.09-2.51-.28-3.25-.28-.46-2.44-.69-6.5-.69-4.88,0-9.51,.16-13.89,.48-.78,.09-1.45,.39-2,.9-.55,.51-.85,1.13-.9,1.87-.55,7.88-1.13,17.76-1.73,29.65-.41,7.79-.62,12.12-.62,12.99,0,.78,.22,1.35,.66,1.69,.44,.35,1.39,.52,2.87,.52h.62c2.86-.14,5.69-.23,8.5-.28h1.24c3.32,0,6.66-.16,10.02-.48,.64-.09,1.13-.67,1.45-1.73,.32-1.06,.48-2.26,.48-3.59s-.15-2.57-.45-3.56c-.3-.99-.73-1.49-1.28-1.49-4.33,.28-8.5,.48-12.51,.62-.37-.05-.55-.62-.55-1.73,0-1.84,.25-3.36,.76-4.56,.28-.74,.65-1.13,1.11-1.18l4.49,.14,2.21-.07c1.43-.05,2.7-.35,3.8-.9,.78-.55,1.2-1.66,1.24-3.32,0-1.61-.28-3.17-.83-4.66-.55-1.5-1.27-2.29-2.14-2.38-2.35,.09-4.17,.23-5.46,.41-.78,.09-1.43,.14-1.94,.14-1.11,0-1.68-.31-1.73-.93-.05-.62-.07-1.16-.07-1.62,0-.74,.05-1.64,.14-2.7l.14-2Z"/>
    <path class="cls-3" d="M161.86,157.54c-3.5-2.46-7.58-3.7-12.23-3.7l-2.49,.07c-5.94,.88-9.05,2.49-9.33,4.84l-1.87,17.9c-.83,7.19-1.57,14.26-2.21,21.22-.09,.83-.14,1.52-.14,2.07,0,.83,.11,1.38,.35,1.66,.42,.46,1.66,.69,3.73,.69l2.35,.07c1.38,0,2.44-.07,3.18-.21,1.11-.14,1.75-.6,1.94-1.38,.18-.78,.28-1.7,.28-2.76l-.07-2.21v-3.8l4.15,4.15c3.18,3.5,5.23,5.33,6.15,5.49,.92,.16,1.47,.24,1.66,.24,1.7,0,4.08-1.47,7.12-4.42,.05-.05,.07-.11,.07-.21,0-.32-.42-.94-1.24-1.87-1.89-1.89-4.91-4.56-9.05-8.02-3.23-2.72-4.84-4.15-4.84-4.29l.07-.07c7.69-.51,12.83-2.14,15.41-4.91,2.58-2.76,3.87-5.57,3.87-8.43,0-.87-.09-1.75-.28-2.63-.88-3.87-3.06-7.04-6.57-9.5Zm-6.53,11.61c-.58,.48-1.29,.91-2.14,1.28-.85,.37-1.6,.55-2.25,.55l-.76-.07c-.78-.23-1.17-1.04-1.17-2.42,0-.23,.09-.88,.28-1.94,.04-.46,.18-.74,.41-.83,.41-.14,.9-.21,1.45-.21,.51,0,1.08,.07,1.73,.21,1.24,.23,2.11,.55,2.59,.97,.48,.41,.73,.78,.73,1.11,0,.41-.29,.86-.86,1.35Z"/>
    <path class="cls-3" d="M200.77,178.1c2.58-2.76,3.87-5.57,3.87-8.43,0-.87-.09-1.75-.28-2.63-.88-3.87-3.06-7.04-6.56-9.5-3.5-2.46-7.58-3.7-12.23-3.7l-2.49,.07c-5.94,.88-9.05,2.49-9.33,4.84l-1.87,17.9c-.83,7.19-1.57,14.26-2.21,21.22-.09,.83-.14,1.52-.14,2.07,0,.83,.11,1.38,.35,1.66,.42,.46,1.66,.69,3.73,.69l2.35,.07c1.38,0,2.44-.07,3.18-.21,1.11-.14,1.75-.6,1.93-1.38,.18-.78,.28-1.7,.28-2.76l-.07-2.21v-3.8l4.15,4.15c3.18,3.5,5.23,5.33,6.15,5.49,.92,.16,1.47,.24,1.66,.24,1.7,0,4.08-1.47,7.12-4.42,.05-.05,.07-.11,.07-.21,0-.32-.41-.94-1.24-1.87-1.89-1.89-4.91-4.56-9.05-8.02-3.23-2.72-4.84-4.15-4.84-4.29l.07-.07c7.69-.51,12.83-2.14,15.41-4.91Zm-15.83-9.61c0-.23,.09-.88,.28-1.94,.05-.46,.18-.74,.41-.83,.41-.14,.9-.21,1.45-.21,.51,0,1.08,.07,1.73,.21,1.24,.23,2.11,.55,2.59,.97,.48,.41,.73,.78,.73,1.11,0,.41-.29,.86-.86,1.35-.58,.48-1.29,.91-2.14,1.28-.85,.37-1.6,.55-2.25,.55l-.76-.07c-.78-.23-1.18-1.04-1.18-2.42Z"/>
    <path class="cls-3" d="M232.78,185.45c-1.3-10.23-3.34-20.63-6.12-31.2-.24-.58-1.06-1-2.45-1.26-1.39-.26-2.84-.4-4.32-.4-2.64,0-4.9,.36-6.77,1.08-1.63,.62-2.62,1.59-2.95,2.88l-2.59,12.11c-2.4,10.62-4.49,21.43-6.27,32.43,.24,.77,.85,1.22,1.84,1.37,.98,.14,1.89,.22,2.7,.22h1.51l.58,.07c.34,0,.65-.07,.94-.22,.91-.38,1.82-2.4,2.74-6.05,.96-3.94,1.68-7.49,2.16-10.66,.19-1.63,.5-2.68,.94-3.13,.43-.46,1.13-.68,2.09-.68h.02c1.19,0,2.14,1,2.15,2.19,.02,6.46,.17,11.14,.43,14.02,.19,2.64,.72,4.11,1.59,4.4,.29,.1,1.47,.14,3.53,.14,3.32,0,6.15-.36,8.5-1.08,1.34-.43,2.02-1.06,2.02-1.87-.82-4.85-1.56-9.63-2.23-14.34Zm-15.17-22.77c.88,.04,1.56,.98,1.51,2.1-.05,1.12-.81,1.99-1.69,1.95-.88-.04-1.56-.98-1.51-2.1,.05-1.12,.81-1.99,1.69-1.95Zm-4.91,4.93c-.3-.85,0-1.74,.68-1.97,.68-.24,1.46,.26,1.76,1.12,.3,.85,0,1.74-.68,1.97-.68,.24-1.47-.26-1.76-1.12Zm8.38,6.42c-.13,.27-.32,.5-.57,.66-.42,.28-1,.33-1.45,.08-.33-.18-.55-.5-.8-.78-.25-.28-.39-.61-.76-.62-.39,0-.72,.26-1.07,.41-.71,.3-1.94,.04-2.43-.81-.43-.73-.18-1.69,.29-2.18,.03-.03,.04-.04,.1-.1,.6-.56,1.43-1.41,2.56-2.38,.22-.19,.49-.41,.77-.36,.19,.04,.35,.19,.43,.37,.08,.17,.11,.37,.13,.56,.05,.44,.11,.88,.16,1.32,.03,.23,.08,.49,.3,.59,.26,.12,.54-.11,.71-.33s.36-.49,.64-.49c.17,0,.33,.11,.44,.25,.1,.14,.16,.3,.21,.47l.44,1.96c.07,.2,.1,.4,.09,.61,0,.27-.06,.53-.18,.77Zm.03-6.36c-.8-.39-1.04-1.52-.55-2.53,.49-1.01,1.54-1.51,2.33-1.12,.79,.39,1.04,1.52,.55,2.53-.49,1.01-1.54,1.51-2.33,1.12Zm3.73,3.03c-.67,.61-1.6,.67-2.08,.14-.48-.53-.32-1.45,.35-2.06,.67-.61,1.6-.67,2.08-.14,.48,.53,.32,1.45-.35,2.06Z"/>
  </g>
  <g>
    <path class="cls-3" d="M16.78,157.68c.07-1.86-.32-2.45-2.73-2.59-1.33-.07-2.21,.28-2.45,2.38l-.46,4.55c-.91-.7-2.07-1.02-3.22-1.02-4.73,0-7.18,4.76-6.97,9,.25,4.06,2.87,6.76,6.02,6.76,1.12,0,2.35-.35,3.5-1.12,.21,1.61,1.75,2.03,3.05,1.89,.88-.14,2.17-.35,2.07-1.79-.18-2.1,1.05-13.06,1.19-18.07Zm-6.27,13.06c-.39,.6-1.26,.98-2.17,.98-1.16,0-2.31-.63-2.31-2.31,0-1.4,.84-3.43,2.77-3.43,.74,0,1.65,.42,1.96,1.19-.07,1.05-.18,2.52-.25,3.57Z"/>
    <path class="cls-3" d="M31.21,171.69c-.67,.03-1.4,.25-2.14,.35-.63,.11-1.26,.14-1.86,.14-1.65,0-3.01-.46-3.33-2.31,.77,.32,1.72,.42,2.66,.42,2.03,0,4.06-.56,4.52-1.12,.98-.7,1.33-3.15,.53-4.87-.91-1.93-3.43-2.59-5.64-2.31-4.06,.49-7.57,3.43-6.94,8.58,.49,3.92,3.43,5.67,6.58,5.67,1.44,0,4.76,.03,6.62-1.33,.77-.6,.35-3.33-1.02-3.22Zm-4.13-6.58c1.26-.04,1.93,1.26,.88,1.75-.35,.18-.84,.25-1.37,.25-1.02,0-2.1-.25-2.1-.25,.49-.98,1.33-1.72,2.59-1.75Z"/>
    <path class="cls-3" d="M12.79,198.99c-.46-.03-1.05-.03-1.68-.07-1.05-.03-1.19-.39-1.26-1.23-.28-4.9-.28-9.53-.7-14.4-.1-1.05-.67-1.72-3.05-1.65-1.05,.03-2.52,.53-2.52,1.75l.63,15.34c.11,2.07,.56,3.19,1.26,3.78,.6,.49,2.73,.77,4.66,.77,1.3,0,2.49-.1,3.05-.39,.81-.39,1.02-1.23,1.02-2.14-.04-1.44-.53-1.68-1.4-1.79Z"/>
    <path class="cls-3" d="M22.38,186.98c-1.47,0-3.08,.35-4.8,1.19-2.28,1.09-1.12,4.34,.21,3.71,1.61-.7,3.75-1.12,5.22-.95,1.12,.18,1.86,.67,1.72,1.65-.74-.21-1.65-.35-2.63-.35-3.15,0-6.86,1.37-6.58,5.85,.21,3.43,2.52,4.9,5.08,4.9,1.58,0,3.29-.56,4.66-1.58-.04,1.12,0,1.96,1.4,1.96,.81,0,3.26-.21,3.26-1.3,0-.74-.18-1.44-.18-2.17,0-2.1,.18-4.24,.18-6.34,0-3.96-3.85-6.58-7.53-6.58Zm-.35,11.56c-1.93,.18-2.7-.63-1.72-1.75,.46-.53,1.3-.77,2.21-.77,.84,0,1.72,.21,2.42,.56l.04,.98s-1.23,.84-2.94,.98Z"/>
  </g>
</svg>