<?xml version="1.0" encoding="UTF-8"?>
<svg id="Capa_1" data-name="Capa 1" xmlns="http://www.w3.org/2000/svg" viewBox="0 0 412.19 144.38">
  <defs>
    <style>
      .cls-1 {
        fill: #fff;
      }

      .cls-2 {
        fill: #224982;
      }

      .cls-3 {
        fill: #40e391;
      }
    </style>
  </defs>
  <circle class="cls-1" cx="70.01" cy="74.36" r="70.01"/>
  <g>
    <g>
      <ellipse class="cls-2" cx="54.76" cy="49.96" rx="10.57" ry="13.36" transform="translate(-9.04 12.22) rotate(-11.77)"/>
      <ellipse class="cls-2" cx="35.81" cy="71.63" rx="8.54" ry="10.8" transform="translate(-33.65 31.78) rotate(-33.6)"/>
    </g>
    <g>
      <ellipse class="cls-2" cx="85.27" cy="49.96" rx="13.36" ry="10.57" transform="translate(18.96 123.24) rotate(-78.23)"/>
      <ellipse class="cls-2" cx="104.22" cy="71.63" rx="10.8" ry="8.54" transform="translate(-13.11 118.8) rotate(-56.4)"/>
    </g>
    <path class="cls-2" d="M43.96,94.14c-2.18,3.92-2.19,10.45,1.72,14.4,4.53,4.58,12.81,4.28,16.83,1.2,2.02-1.55,3.69-3.78,6.19-4.37,2.43-.57,3.83,1.31,5.88,2.69,2.05,1.38,4,3.05,6.4,3.69,3.24,.87,6.88-.41,9.11-2.86,1.33-1.45,2.18-3.26,2.58-5.16,.36-1.72,.3-3.51-.11-5.22h0c-.32-1.33-.86-2.59-1.6-3.75l-6-11.78c-.61-.95-1.23-1.92-2.12-2.64-.88-.72-2.09-1.16-3.2-.87-1.81,.46-2.59,2.48-3.3,4.17-.71,1.69-2.12,3.57-3.97,3.24-1.51-.27-2.3-1.87-2.84-3.26-1.06-2.72-2.13-5.44-3.19-8.15-.46-1.18-.94-2.38-1.75-3.37-.82-.98-2.05-1.73-3.34-1.65-1.88,.11-3.22,1.93-4.33,3.52-5.58,8.05-9.55,14.83-12.46,19.37-.3,.47-.37,.57-.5,.8Z"/>
  </g>
  <g>
    <path class="cls-3" d="M184.87,141.21c-.46,.23-1.41,.48-2.62,.48-2.43,0-4.53-1.47-4.53-4.33,0-2.3,1.72-4.43,4.84-4.43,1.26,0,2,.28,2.3,.43l-.24,.68c-.49-.24-1.23-.42-2.02-.42-2.58,0-4.01,1.56-4.01,3.77,0,2.01,1.34,3.6,3.89,3.6,.81,0,1.62-.16,2.18-.43l.21,.66Z"/>
    <path class="cls-3" d="M192.67,133.07h.84v7.76h4.13v.7h-4.96v-8.47Z"/>
    <path class="cls-3" d="M207.41,131.15l-1.64,1.47h-.69l1.18-1.47h1.14Zm-1.34,1.92v8.47h-.84v-8.47h.84Z"/>
    <path class="cls-3" d="M214.48,141.53v-8.47h.88l3.52,4.86c.75,1.04,1.25,1.77,1.69,2.57l.03-.02c-.1-1.01-.11-2.02-.11-3.31v-4.1h.8v8.47h-.82l-3.43-4.75c-.69-.98-1.34-1.9-1.8-2.71l-.04,.02c.06,1,.08,1.94,.08,3.2v4.24h-.8Z"/>
    <path class="cls-3" d="M230.56,133.07v8.47h-.84v-8.47h.84Z"/>
    <path class="cls-3" d="M245.53,141.21c-.46,.23-1.41,.48-2.62,.48-2.43,0-4.53-1.47-4.53-4.33,0-2.3,1.72-4.43,4.84-4.43,1.26,0,2,.28,2.3,.43l-.24,.68c-.49-.24-1.23-.42-2.02-.42-2.58,0-4.01,1.56-4.01,3.77,0,2.01,1.34,3.6,3.89,3.6,.81,0,1.62-.16,2.18-.43l.21,.66Z"/>
    <path class="cls-3" d="M254.61,138.67l-1.09,2.86h-.88l3.32-8.47h.94l3.32,8.47h-.89l-1.12-2.86h-3.6Zm3.38-.67l-1.1-2.79c-.22-.55-.34-.95-.47-1.37h-.03c-.13,.44-.26,.84-.46,1.34l-1.1,2.82h3.15Z"/>
    <path class="cls-3" d="M278.6,141.53l-3.07-8.47h.9l1.59,4.48c.45,1.26,.8,2.25,1.06,3.16h.03c.28-.91,.69-1.95,1.17-3.14l1.78-4.5h.9l-3.46,8.47h-.89Z"/>
    <path class="cls-3" d="M294.66,137.43h-3.73v3.41h4.15v.69h-4.99v-8.47h4.78v.69h-3.94v2.98h3.73v.69Z"/>
    <path class="cls-3" d="M305.06,133.76h-3.06v-.69h6.96v.69h-3.06v7.77h-.84v-7.77Z"/>
    <path class="cls-3" d="M320.68,137.43h-3.73v3.41h4.15v.69h-4.99v-8.47h4.78v.69h-3.94v2.98h3.73v.69Z"/>
    <path class="cls-3" d="M328.95,133.18c.59-.11,1.45-.19,2.18-.19,1.23,0,2.01,.25,2.54,.74,.39,.35,.64,.92,.64,1.53,0,1.12-.74,1.88-1.72,2.18v.03c.68,.24,1.11,.87,1.32,1.69,.31,1.27,.5,2.01,.7,2.37h-.88c-.14-.24-.33-.96-.58-2.02-.27-1.19-.8-1.71-1.91-1.77h-1.46v3.79h-.83v-8.35Zm.83,3.91h1.52c1.34,0,2.17-.68,2.17-1.72,0-1.27-1.04-1.72-2.32-1.72-.67,0-1.14,.07-1.37,.13v3.32Z"/>
    <path class="cls-3" d="M343.13,133.07v8.47h-.84v-8.47h.84Z"/>
    <path class="cls-3" d="M351.55,141.53v-8.47h.88l3.52,4.86c.75,1.04,1.25,1.77,1.69,2.57l.03-.02c-.1-1.01-.11-2.02-.11-3.31v-4.1h.8v8.47h-.82l-3.43-4.75c-.69-.98-1.34-1.9-1.8-2.71l-.04,.02c.06,1,.08,1.94,.08,3.2v4.24h-.8Z"/>
    <path class="cls-3" d="M368.04,138.67l-1.09,2.86h-.88l3.32-8.47h.94l3.32,8.47h-.89l-1.12-2.86h-3.6Zm3.38-.67l-1.1-2.79c-.22-.55-.34-.95-.47-1.37h-.03c-.13,.44-.26,.84-.46,1.34l-1.1,2.82h3.15Z"/>
    <path class="cls-3" d="M381.26,133.18c.59-.11,1.45-.19,2.18-.19,1.23,0,2.01,.25,2.54,.74,.39,.35,.64,.92,.64,1.53,0,1.12-.74,1.88-1.72,2.18v.03c.68,.24,1.11,.87,1.32,1.69,.31,1.27,.5,2.01,.7,2.37h-.88c-.14-.24-.33-.96-.58-2.02-.28-1.19-.8-1.71-1.91-1.77h-1.46v3.79h-.83v-8.35Zm.83,3.91h1.52c1.34,0,2.17-.68,2.17-1.72,0-1.27-1.04-1.72-2.32-1.72-.67,0-1.14,.07-1.37,.13v3.32Z"/>
    <path class="cls-3" d="M395.45,133.07v8.47h-.84v-8.47h.84Z"/>
    <path class="cls-3" d="M405.12,138.67l-1.09,2.86h-.88l3.32-8.47h.94l3.32,8.47h-.89l-1.12-2.86h-3.6Zm3.38-.67l-1.1-2.79c-.22-.55-.34-.95-.47-1.37h-.02c-.13,.44-.26,.84-.46,1.34l-1.1,2.82h3.15Z"/>
  </g>
  <g>
    <path class="cls-3" d="M179.97,60.57c-.93,0-1.53-.51-1.82-1.55-.28-1.03-.45-2.11-.5-3.25,0-.62-.34-3.56-1.01-8.82-.93-7.17-1.7-27.12-2.32-34.49,0-1.65,.7-2.86,2.09-3.63,1.39-.77,2.81-1.34,4.25-1.7,.05-.05,.13-.08,.23-.08,.67-.21,1.29-.31,1.86-.31,1.34,0,2.28,.75,2.82,2.24,.54,1.5,.84,16.4,.89,19.33l.03,.54c.02,.35,.37,.59,.71,.48,.67-.21,1.3-.4,1.88-.56,1.44-.36,2.54-.82,3.29-1.39,.75-.57,1.12-1.47,1.12-2.71v-.54c-.46-6.81-.7-11.06-.7-12.76,0-1.34,.15-2.23,.46-2.67,.31-.44,.93-.71,1.86-.81,4.02-.72,6.91-1.11,8.66-1.16,1.8,0,2.89,.52,3.25,1.55,.26,.77,.39,1.93,.39,3.48l-.08,2.24c0,10.11,.18,23.54,.54,40.29,0,.88-.09,1.62-.27,2.24-.18,.62-.66,1.01-1.43,1.16-2.53,.57-4.54,.85-6.03,.85-1.39,0-2.5-.35-3.33-1.04-.83-.7-1.31-3.47-1.47-8.31l-.08-2.78c-.05-.93-.12-1.84-.19-2.75-.08-.9-.23-1.6-.46-2.09-.23-.49-.55-.73-.97-.73l-.31,.08c-1.13,.21-2.24,.57-3.33,1.08-.83,.36-1.24,1.01-1.24,1.93,0,1.29,.13,3.04,.39,5.26,.41,3.51,.62,5.7,.62,6.57,0,.72-.05,1.24-.15,1.55-.41,.67-2.32,1.47-5.72,2.4-2.11,.57-3.43,.85-3.94,.85Z"/>
    <path class="cls-3" d="M236.11,64.21c-1.65,0-2.71-.39-3.17-1.16-.26-.46-.39-1.21-.39-2.24,0-1.19,.18-2.78,.54-4.8-3.97,2.99-7.37,4.49-10.21,4.49-1.81,0-3.94-1.06-6.42-3.17-2.47-2.11-4.1-7.53-4.87-16.24-.26-2.78-.39-5.75-.39-8.89,0-6.65,.59-14.07,1.78-22.27,.05-1.29,.44-2.1,1.16-2.44,.72-.33,2.06-.5,4.02-.5,.93,0,1.78-.03,2.55-.08l1.47-.08c1.8,0,2.96,.34,3.48,1.01,.21,.31,.31,.8,.31,1.47,0,1.24-.36,3.15-1.08,5.72-1.7,6.81-2.55,13.12-2.55,18.95,0,4.79,.62,8.46,1.86,10.98,.67,1.29,1.37,1.93,2.09,1.93,.93,0,2.15-1.44,3.67-4.33,1.52-2.89,3.05-11.26,4.6-25.13,.26-1.08,1.24-1.88,2.94-2.4,1.08-.36,2.17-.54,3.25-.54,.62,0,1.48,.1,2.59,.31,1.11,.21,1.66,.98,1.66,2.32-.72,10-1.08,19.13-1.08,27.38l.08,5.72v6.26c0,2.17-.08,3.84-.23,5.03-.16,1.19-.63,1.92-1.43,2.2-.8,.28-1.97,.43-3.52,.43h-1.47l-1.24,.08Z"/>
    <path class="cls-3" d="M252.51,60.65h-.7c-1.65,0-2.72-.19-3.21-.58-.49-.39-.73-1.02-.73-1.89,0-.98,.23-5.83,.7-14.54,.67-13.3,1.31-24.36,1.93-33.18,.05-.82,.39-1.52,1.01-2.09,.62-.57,1.37-.9,2.24-1.01,4.9-.36,10.08-.54,15.54-.54,4.54,0,6.96,.26,7.27,.77,.21,.83,.31,2.04,.31,3.63,0,3.66-.88,5.54-2.63,5.65-4.74,0-7.75,.05-9.01,.15-1.26,.1-2.09,.41-2.47,.93-.39,.52-.58,1.37-.58,2.55l-.15,2.24c-.1,1.19-.15,2.19-.15,3.02,0,.52,.03,1.12,.08,1.82,.05,.7,.7,1.04,1.93,1.04,.57,0,1.29-.05,2.17-.15,1.44-.21,3.48-.36,6.11-.46,.98,.1,1.78,.99,2.4,2.67,.62,1.68,.93,3.42,.93,5.22-.05,1.86-.52,3.09-1.39,3.71-1.24,.62-2.66,.95-4.25,1.01l-2.47,.08-5.03-.15c-.52,.05-.93,.49-1.24,1.31-.57,1.34-.85,3.04-.85,5.1,0,1.24,.21,1.88,.62,1.93,4.49-.15,9.15-.39,14-.7,.62,0,1.09,.55,1.43,1.66,.33,1.11,.5,2.44,.5,3.98s-.18,2.84-.54,4.02c-.36,1.19-.9,1.83-1.62,1.93-3.76,.36-7.5,.54-11.21,.54h-1.39c-3.15,.05-6.32,.16-9.51,.31Z"/>
    <path class="cls-3" d="M303.94,60.65h-4.41c-.88-.05-2.32-.08-4.33-.08h-8.58c-3.71,0-5.7-.41-5.95-1.24-.21-.46-.31-1.11-.31-1.93,0-13.97-.08-23.82-.23-29.54l-.08-11.52c0-2.78,.12-4.78,.35-5.99,.23-1.21,.64-1.98,1.24-2.32,.59-.33,1.4-.53,2.44-.58l1.08-.08c1.7-.26,3.61-.39,5.72-.39,.72,.05,1.13,.57,1.24,1.55,.36,6.29,.54,12.56,.54,18.79,0,2.11-.03,4.2-.08,6.26v11.14c0,1.03,.12,1.69,.35,1.97,.23,.28,.58,.43,1.04,.43s1.08-.1,1.86-.31l2.86-.85c3.2-1.03,5.59-1.55,7.19-1.55,.46,0,1.16,.13,2.09,.39,.93,.26,1.39,3.02,1.39,8.27,0,1.13-.07,2.44-.19,3.91-.13,1.47-.55,2.44-1.28,2.9-1.13,.46-2.45,.72-3.94,.77Z"/>
    <path class="cls-3" d="M335.02,60.65h-4.41c-.88-.05-2.32-.08-4.33-.08h-8.58c-3.71,0-5.7-.41-5.95-1.24-.21-.46-.31-1.11-.31-1.93,0-13.97-.08-23.82-.23-29.54l-.08-11.52c0-2.78,.12-4.78,.35-5.99,.23-1.21,.64-1.98,1.24-2.32,.59-.33,1.4-.53,2.44-.58l1.08-.08c1.7-.26,3.61-.39,5.72-.39,.72,.05,1.13,.57,1.24,1.55,.36,6.29,.54,12.56,.54,18.79,0,2.11-.03,4.2-.08,6.26v11.14c0,1.03,.12,1.69,.35,1.97,.23,.28,.58,.43,1.04,.43s1.08-.1,1.86-.31l2.86-.85c3.2-1.03,5.59-1.55,7.19-1.55,.46,0,1.16,.13,2.09,.39,.93,.26,1.39,3.02,1.39,8.27,0,1.13-.07,2.44-.19,3.91-.13,1.47-.55,2.44-1.28,2.9-1.13,.46-2.45,.72-3.94,.77Z"/>
    <path class="cls-3" d="M392.17,60.8c-1.6,0-3.27-.21-5.03-.62-4.07-1.29-6.88-3.94-8.43-7.97-.77-2.06-1.16-4.1-1.16-6.11s.36-3.92,1.08-5.88c.36-.88,.85-1.39,1.47-1.55,.41-.15,.98-.23,1.7-.23l1.16,.08c2.68,0,4.46,.36,5.34,1.08,.88,.72,1.49,1.42,1.86,2.09,.62,.98,1.21,1.47,1.78,1.47,.31,0,.7-.1,1.16-.31,1.65-.77,2.47-1.88,2.47-3.33,0-.05-.01-.46-.04-1.24-.03-.77-1.25-1.8-3.67-3.09l-1.62-.77c-2.94-1.29-5.4-2.69-7.39-4.21-1.99-1.52-3.36-3.78-4.14-6.77-.26-1.19-.39-2.32-.39-3.4,0-2.63,.89-5.13,2.67-7.5,1.78-2.37,4.47-4.12,8.08-5.26,2.27-.72,4.56-1.08,6.88-1.08,1.34,0,2.71,.13,4.1,.39,3.45,.62,5.98,1.7,7.58,3.25,1.6,1.55,2.6,3.89,3.02,7.04,.05,.46,.08,1.01,.08,1.62,0,3.97-.57,6.91-1.7,8.82-.36,.57-.8,.85-1.31,.85-.62,0-1.37-.44-2.24-1.31-.88-1.08-1.73-2.35-2.55-3.79-1.91-3.56-3.58-5.34-5.03-5.34-.57,0-1.15,.19-1.74,.58-.59,.39-.89,.92-.89,1.59,0,.62,.4,1.57,1.2,2.86,.8,1.29,2.72,3.66,5.76,7.11l2.94,3.48c2.42,3.09,3.63,6.42,3.63,9.98,0,.98-.26,2.9-.77,5.76-.52,2.86-2.68,5.74-6.5,8.62-2.63,2.06-5.75,3.09-9.36,3.09Z"/>
    <path class="cls-3" d="M375.42,42.24c-1.39-10.98-3.58-22.14-6.57-33.49-.26-.62-1.13-1.07-2.63-1.35-1.5-.28-3.04-.43-4.64-.43-2.84,0-5.26,.39-7.27,1.16-1.75,.67-2.81,1.7-3.17,3.09l-2.78,12.99c-2.58,11.4-4.82,23-6.73,34.8,.26,.83,.91,1.31,1.97,1.47,1.06,.15,2.02,.23,2.9,.23h1.62l.62,.08c.36,0,.7-.08,1.01-.23,.98-.41,1.96-2.58,2.94-6.5,1.03-4.23,1.8-8.04,2.32-11.45,.21-1.75,.54-2.87,1.01-3.36,.46-.49,1.21-.73,2.24-.73h.02c1.28,0,2.3,1.07,2.3,2.35,.03,6.94,.18,11.95,.46,15.05,.21,2.84,.77,4.41,1.7,4.72,.31,.1,1.57,.15,3.79,.15,3.56,0,6.6-.39,9.13-1.16,1.44-.46,2.17-1.13,2.17-2.01-.88-5.21-1.68-10.34-2.4-15.39Zm-14.27-24.09c.95,0,1.72,.97,1.72,2.17,0,1.2-.77,2.18-1.72,2.18-.95,0-1.72-.97-1.72-2.17,0-1.2,.77-2.18,1.72-2.18Zm-5.73,1.2c.87-.38,1.97,.21,2.45,1.31s.16,2.3-.71,2.68c-.87,.38-1.97-.21-2.45-1.31-.48-1.1-.16-2.3,.71-2.68Zm-.18,7.31c-.54,.55-1.54,.44-2.23-.25-.69-.68-.81-1.68-.28-2.22,.54-.55,1.54-.44,2.23,.25s.81,1.68,.28,2.22Zm8.64,2.9c-.27,.46-.81,.79-1.36,.76-.4-.02-.77-.22-1.14-.38-.37-.15-.66-.4-1.03-.23-.38,.18-.57,.59-.84,.9-.54,.63-1.85,.95-2.72,.37-.76-.5-.97-1.54-.75-2.24,.01-.04,.02-.06,.05-.14,.31-.82,.72-2.03,1.34-3.5,.12-.29,.28-.63,.57-.71,.2-.05,.43,.02,.59,.15s.28,.31,.39,.48c.26,.4,.52,.8,.78,1.19,.13,.2,.31,.43,.56,.43,.31,0,.47-.36,.52-.65,.06-.29,.11-.64,.39-.77,.17-.08,.37-.05,.54,.03,.16,.09,.3,.22,.43,.35l1.35,1.68c.16,.16,.28,.34,.38,.54,.12,.26,.19,.54,.19,.83,0,.32-.08,.63-.24,.91Zm2.3-5.89c-.36,.9-1.23,1.4-1.94,1.12-.71-.29-1-1.25-.64-2.15s1.23-1.4,1.94-1.12c.71,.29,1,1.25,.64,2.15Z"/>
  </g>
  <g>
    <path class="cls-1" d="M244.98,72.57c-1.44-1.39-3.72-2.37-6.83-2.93-1.25-.23-2.49-.35-3.69-.35-2.09,0-4.16,.33-6.2,.98-3.25,1.02-5.68,2.6-7.28,4.74-1.6,2.14-2.4,4.39-2.4,6.76,0,.98,.12,2,.35,3.07,.7,2.7,1.94,4.73,3.73,6.1,1.79,1.37,4.01,2.64,6.65,3.8l1.46,.7c2.18,1.16,3.29,2.09,3.31,2.79,.02,.7,.04,1.07,.04,1.11,0,1.3-.74,2.3-2.23,3-.42,.19-.77,.28-1.05,.28-.51,0-1.05-.44-1.6-1.32-.33-.6-.88-1.23-1.67-1.88-.79-.65-2.39-.98-4.81-.98l-1.05-.07c-.65,0-1.16,.07-1.53,.21-.56,.14-1,.6-1.32,1.39-.65,1.77-.98,3.53-.98,5.3s.35,3.65,1.05,5.5c1.39,3.62,3.93,6.02,7.6,7.18,1.58,.37,3.09,.56,4.53,.56,3.25,0,6.06-.93,8.43-2.79,3.44-2.6,5.39-5.19,5.85-7.77,.46-2.58,.7-4.31,.7-5.19,0-3.2-1.09-6.2-3.28-8.99l-2.65-3.14c-2.74-3.11-4.47-5.25-5.19-6.41-.72-1.16-1.08-2.02-1.08-2.58,0-.6,.27-1.08,.8-1.43,.53-.35,1.06-.52,1.57-.52,1.3,0,2.81,1.6,4.53,4.81,.74,1.3,1.51,2.44,2.3,3.41,.79,.79,1.46,1.18,2.02,1.18,.46,0,.86-.26,1.18-.77,1.02-1.72,1.53-4.37,1.53-7.94,0-.56-.02-1.04-.07-1.46-.37-2.83-1.28-4.95-2.72-6.34Z"/>
    <path class="cls-1" d="M270.13,90.39l.34-5.74s.02,0,.04,0c3.66,0,6.63-2.97,6.63-6.63s-2.97-6.63-6.63-6.63c-2.3,0-4.32,1.17-5.51,2.95-.89-2.61-3.36-4.49-6.27-4.49-3.66,0-6.63,2.97-6.63,6.63s2.97,6.63,6.63,6.63c.05,0,.1,0,.14,0v1.45c-.09,7.43-.14,9.8-.14,20.06v1.55c-.44-.09-.89-.14-1.35-.14-3.66,0-6.63,2.97-6.63,6.63s2.97,6.63,6.63,6.63c2.83,0,5.23-1.77,6.19-4.26,1.18,1.85,3.24,3.09,5.6,3.09,3.66,0,6.63-2.97,6.63-6.63s-2.97-6.63-6.63-6.63c-.03,0-.07,0-.1,0,.02-.5,.04-1.01,.05-1.57,.37-10.87,.7-7.33,1.02-12.9Z"/>
    <path class="cls-1" d="M294.11,82.18c0-1.07,.17-1.83,.52-2.3,.35-.46,1.09-.74,2.23-.84,1.14-.09,3.84-.14,8.12-.14,1.58-.09,2.37-1.79,2.37-5.09,0-1.44-.09-2.53-.28-3.28-.28-.46-2.46-.7-6.55-.7-4.92,0-9.59,.16-14.01,.49-.79,.09-1.46,.4-2.02,.91-.56,.51-.86,1.14-.91,1.88-.56,7.94-1.14,17.91-1.74,29.89-.42,7.85-.63,12.22-.63,13.1,0,.79,.22,1.36,.66,1.71,.44,.35,1.4,.52,2.89,.52h.63c2.88-.14,5.74-.23,8.57-.28h1.25c3.34,0,6.71-.16,10.1-.49,.65-.09,1.14-.67,1.46-1.74,.32-1.07,.49-2.28,.49-3.62s-.15-2.59-.45-3.59c-.3-1-.73-1.5-1.29-1.5-4.37,.28-8.57,.49-12.61,.63-.37-.05-.56-.63-.56-1.74,0-1.86,.25-3.39,.77-4.6,.28-.74,.65-1.14,1.12-1.18l4.53,.14,2.23-.07c1.44-.05,2.72-.35,3.83-.91,.79-.56,1.21-1.67,1.25-3.35,0-1.63-.28-3.19-.84-4.7-.56-1.51-1.28-2.31-2.16-2.4-2.37,.09-4.2,.23-5.51,.42-.79,.09-1.44,.14-1.95,.14-1.12,0-1.7-.31-1.74-.94-.05-.63-.07-1.17-.07-1.64,0-.74,.05-1.65,.14-2.72l.14-2.02Z"/>
    <path class="cls-1" d="M337.52,73.09c-3.53-2.48-7.64-3.73-12.33-3.73l-2.51,.07c-5.99,.88-9.13,2.51-9.41,4.88l-1.88,18.05c-.84,7.25-1.58,14.38-2.23,21.39-.09,.84-.14,1.53-.14,2.09,0,.84,.12,1.39,.35,1.67,.42,.47,1.67,.7,3.76,.7l2.37,.07c1.39,0,2.46-.07,3.21-.21,1.11-.14,1.76-.6,1.95-1.39,.18-.79,.28-1.72,.28-2.79l-.07-2.23v-3.83l4.18,4.18c3.21,3.53,5.27,5.38,6.2,5.54,.93,.16,1.49,.24,1.67,.24,1.72,0,4.11-1.49,7.18-4.46,.05-.05,.07-.12,.07-.21,0-.32-.42-.95-1.25-1.88-1.91-1.9-4.95-4.6-9.13-8.08-3.25-2.74-4.88-4.18-4.88-4.32l.07-.07c7.76-.51,12.94-2.16,15.54-4.95,2.6-2.79,3.9-5.62,3.9-8.5,0-.88-.09-1.76-.28-2.65-.88-3.9-3.09-7.1-6.62-9.58Zm-6.59,11.71c-.58,.49-1.3,.92-2.16,1.29-.86,.37-1.61,.56-2.26,.56l-.77-.07c-.79-.23-1.18-1.04-1.18-2.44,0-.23,.09-.88,.28-1.95,.05-.46,.18-.74,.42-.84,.42-.14,.91-.21,1.46-.21,.51,0,1.09,.07,1.74,.21,1.25,.23,2.13,.56,2.61,.98,.49,.42,.73,.79,.73,1.11,0,.42-.29,.87-.87,1.36Z"/>
    <path class="cls-1" d="M376.75,93.82c2.6-2.79,3.9-5.62,3.9-8.5,0-.88-.09-1.76-.28-2.65-.88-3.9-3.09-7.1-6.62-9.58-3.53-2.48-7.64-3.73-12.33-3.73l-2.51,.07c-5.99,.88-9.13,2.51-9.41,4.88l-1.88,18.05c-.84,7.25-1.58,14.38-2.23,21.39-.09,.84-.14,1.53-.14,2.09,0,.84,.12,1.39,.35,1.67,.42,.47,1.67,.7,3.76,.7l2.37,.07c1.39,0,2.46-.07,3.21-.21,1.11-.14,1.76-.6,1.95-1.39,.19-.79,.28-1.72,.28-2.79l-.07-2.23v-3.83l4.18,4.18c3.21,3.53,5.27,5.38,6.2,5.54,.93,.16,1.49,.24,1.67,.24,1.72,0,4.11-1.49,7.18-4.46,.05-.05,.07-.12,.07-.21,0-.32-.42-.95-1.25-1.88-1.91-1.9-4.95-4.6-9.13-8.08-3.25-2.74-4.88-4.18-4.88-4.32l.07-.07c7.76-.51,12.94-2.16,15.54-4.95Zm-15.96-9.69c0-.23,.09-.88,.28-1.95,.05-.46,.19-.74,.42-.84,.42-.14,.91-.21,1.46-.21,.51,0,1.09,.07,1.74,.21,1.25,.23,2.13,.56,2.61,.98,.49,.42,.73,.79,.73,1.11,0,.42-.29,.87-.87,1.36-.58,.49-1.3,.92-2.16,1.29-.86,.37-1.61,.56-2.26,.56l-.77-.07c-.79-.23-1.18-1.04-1.18-2.44Z"/>
    <path class="cls-1" d="M409.03,101.23c-1.31-10.32-3.37-20.8-6.18-31.46-.24-.58-1.07-1-2.47-1.27-1.41-.27-2.86-.4-4.36-.4-2.66,0-4.94,.36-6.83,1.09-1.65,.63-2.64,1.6-2.98,2.91l-2.62,12.21c-2.42,10.71-4.53,21.6-6.32,32.69,.24,.78,.86,1.24,1.85,1.38,.99,.15,1.9,.22,2.72,.22h1.53l.58,.07c.34,0,.65-.07,.94-.22,.92-.39,1.84-2.42,2.76-6.1,.97-3.97,1.69-7.56,2.18-10.75,.19-1.65,.51-2.7,.94-3.16,.44-.46,1.14-.69,2.11-.69h.02c1.2,0,2.16,1.01,2.16,2.21,.02,6.52,.17,11.23,.43,14.14,.19,2.66,.73,4.14,1.6,4.43,.29,.1,1.48,.15,3.56,.15,3.34,0,6.2-.36,8.57-1.09,1.36-.44,2.03-1.06,2.03-1.89-.82-4.89-1.57-9.71-2.25-14.46Zm-15.3-22.95c.89,.04,1.57,.99,1.52,2.11-.05,1.13-.81,2.01-1.7,1.97-.89-.04-1.57-.99-1.52-2.11s.81-2.01,1.7-1.97Zm-4.95,4.97c-.3-.86,0-1.75,.69-1.99,.68-.24,1.48,.27,1.78,1.13s0,1.75-.69,1.99c-.68,.24-1.48-.27-1.78-1.13Zm8.45,6.48c-.13,.27-.33,.5-.58,.67-.42,.28-1.01,.33-1.46,.08-.33-.19-.56-.51-.81-.79-.25-.28-.39-.61-.77-.62-.39,0-.72,.26-1.08,.41-.71,.31-1.95,.04-2.45-.81-.43-.73-.18-1.7,.29-2.2,.03-.03,.04-.04,.1-.1,.6-.56,1.45-1.42,2.58-2.4,.22-.19,.49-.41,.77-.36,.19,.04,.35,.19,.43,.37,.08,.18,.11,.37,.13,.56,.05,.44,.11,.89,.17,1.33,.03,.23,.08,.49,.3,.59,.26,.12,.54-.11,.71-.33,.17-.22,.36-.49,.65-.49,.18,0,.34,.11,.44,.25,.1,.14,.16,.31,.21,.47l.44,1.97c.07,.2,.1,.41,.1,.62,0,.27-.06,.54-.18,.78Zm.03-6.41c-.8-.39-1.05-1.53-.55-2.55,.5-1.01,1.55-1.52,2.35-1.13,.8,.39,1.05,1.53,.55,2.55-.5,1.01-1.55,1.52-2.35,1.13Zm3.76,3.06c-.68,.61-1.62,.67-2.1,.14-.48-.54-.33-1.46,.35-2.08,.68-.61,1.62-.67,2.1-.14,.48,.54,.33,1.47-.35,2.08Z"/>
  </g>
  <g>
    <path class="cls-1" d="M191.24,73.24c.07-1.87-.32-2.47-2.75-2.61-1.34-.07-2.22,.28-2.47,2.4l-.46,4.59c-.92-.71-2.08-1.02-3.25-1.02-4.77,0-7.24,4.8-7.03,9.08,.25,4.1,2.9,6.82,6.07,6.82,1.13,0,2.37-.35,3.53-1.13,.21,1.62,1.77,2.05,3.07,1.91,.88-.14,2.19-.35,2.08-1.8-.18-2.12,1.06-13.17,1.2-18.22Zm-6.32,13.17c-.39,.6-1.27,.99-2.19,.99-1.17,0-2.33-.64-2.33-2.33,0-1.41,.85-3.46,2.79-3.46,.74,0,1.66,.42,1.98,1.2-.07,1.06-.18,2.54-.25,3.6Z"/>
    <path class="cls-1" d="M205.79,87.36c-.67,.04-1.41,.25-2.15,.35-.64,.11-1.27,.14-1.87,.14-1.66,0-3.04-.46-3.35-2.33,.78,.32,1.73,.42,2.68,.42,2.05,0,4.1-.56,4.56-1.13,.99-.71,1.34-3.18,.53-4.91-.92-1.94-3.46-2.61-5.69-2.33-4.1,.49-7.63,3.46-6.99,8.65,.49,3.96,3.46,5.72,6.64,5.72,1.45,0,4.8,.04,6.67-1.34,.78-.6,.35-3.35-1.02-3.25Zm-4.17-6.64c1.27-.04,1.94,1.27,.88,1.77-.35,.18-.85,.25-1.38,.25-1.02,0-2.12-.25-2.12-.25,.49-.99,1.34-1.73,2.61-1.77Z"/>
    <path class="cls-1" d="M187.21,114.88c-.46-.04-1.06-.04-1.7-.07-1.06-.04-1.2-.39-1.27-1.24-.28-4.94-.28-9.61-.71-14.51-.11-1.06-.67-1.73-3.07-1.66-1.06,.04-2.54,.53-2.54,1.77l.64,15.47c.11,2.08,.57,3.21,1.27,3.81,.6,.49,2.75,.78,4.7,.78,1.31,0,2.51-.11,3.07-.39,.81-.39,1.02-1.24,1.02-2.15-.04-1.45-.53-1.69-1.41-1.8Z"/>
    <path class="cls-1" d="M196.89,102.77c-1.48,0-3.11,.35-4.84,1.2-2.3,1.09-1.13,4.38,.21,3.74,1.62-.71,3.78-1.13,5.26-.95,1.13,.18,1.87,.67,1.73,1.66-.74-.21-1.66-.35-2.65-.35-3.18,0-6.92,1.38-6.64,5.9,.21,3.46,2.54,4.94,5.12,4.94,1.59,0,3.32-.56,4.7-1.59-.04,1.13,0,1.98,1.41,1.98,.81,0,3.28-.21,3.28-1.31,0-.74-.18-1.45-.18-2.19,0-2.12,.18-4.27,.18-6.39,0-3.99-3.88-6.64-7.59-6.64Zm-.35,11.65c-1.94,.18-2.72-.64-1.73-1.77,.46-.53,1.31-.78,2.22-.78,.85,0,1.73,.21,2.44,.56l.04,.99s-1.24,.85-2.97,.99Z"/>
  </g>
</svg>