<?xml version="1.0" encoding="UTF-8"?>
<svg id="Capa_1" data-name="Capa 1" xmlns="http://www.w3.org/2000/svg" viewBox="0 0 423.74 58.07">
  <defs>
    <style>
      .cls-1 {
        fill: #fff;
      }

      .cls-2 {
        fill: #40e391;
      }
    </style>
  </defs>
  <g>
    <g>
      <ellipse class="cls-1" cx="21.49" cy="10.09" rx="8.04" ry="10.17" transform="translate(-1.61 4.6) rotate(-11.77)"/>
      <ellipse class="cls-1" cx="7.07" cy="26.58" rx="6.5" ry="8.22" transform="translate(-13.53 8.35) rotate(-33.6)"/>
    </g>
    <g>
      <ellipse class="cls-1" cx="44.71" cy="10.09" rx="10.17" ry="8.04" transform="translate(25.71 51.81) rotate(-78.23)"/>
      <ellipse class="cls-1" cx="59.14" cy="26.58" rx="8.22" ry="6.5" transform="translate(4.27 61.13) rotate(-56.4)"/>
    </g>
    <path class="cls-1" d="M13.28,43.71c-1.66,2.99-1.67,7.95,1.31,10.96,3.45,3.48,9.75,3.26,12.81,.91,1.54-1.18,2.81-2.88,4.71-3.33,1.85-.43,2.92,1,4.48,2.05s3.04,2.32,4.87,2.81c2.47,.66,5.23-.31,6.93-2.17,1.01-1.1,1.66-2.48,1.96-3.93,.27-1.31,.23-2.67-.09-3.97h0c-.24-1.01-.66-1.97-1.22-2.85l-4.57-8.96c-.46-.72-.94-1.46-1.61-2.01-.67-.55-1.59-.88-2.44-.66-1.38,.35-1.97,1.89-2.51,3.17-.54,1.29-1.62,2.72-3.02,2.47-1.15-.2-1.75-1.42-2.16-2.48-.81-2.07-1.62-4.14-2.43-6.21-.35-.9-.71-1.81-1.33-2.56-.62-.75-1.56-1.31-2.54-1.26-1.43,.08-2.45,1.47-3.3,2.68-4.25,6.13-7.27,11.29-9.48,14.74-.23,.36-.28,.43-.38,.61Z"/>
  </g>
  <g>
    <path class="cls-2" d="M154.86,57.56c-.49,.24-1.49,.51-2.78,.51-2.58,0-4.81-1.55-4.81-4.59,0-2.44,1.82-4.7,5.14-4.7,1.33,0,2.12,.29,2.44,.45l-.25,.72c-.52-.26-1.3-.44-2.14-.44-2.74,0-4.25,1.65-4.25,3.99,0,2.13,1.42,3.82,4.12,3.82,.86,0,1.72-.17,2.31-.46l.22,.7Z"/>
    <path class="cls-2" d="M163.13,48.93h.89v8.23h4.37v.74h-5.26v-8.97Z"/>
    <path class="cls-2" d="M178.75,46.9l-1.74,1.56h-.73l1.25-1.56h1.21Zm-1.42,2.04v8.97h-.89v-8.97h.89Z"/>
    <path class="cls-2" d="M186.25,57.91v-8.97h.93l3.73,5.15c.79,1.1,1.33,1.87,1.79,2.72l.03-.02c-.1-1.08-.11-2.14-.11-3.51v-4.34h.85v8.97h-.87l-3.64-5.04c-.73-1.04-1.42-2.02-1.91-2.87l-.04,.02c.07,1.06,.08,2.06,.08,3.39v4.49h-.85Z"/>
    <path class="cls-2" d="M203.29,48.93v8.97h-.89v-8.97h.89Z"/>
    <path class="cls-2" d="M219.17,57.56c-.49,.24-1.49,.51-2.78,.51-2.58,0-4.81-1.55-4.81-4.59,0-2.44,1.82-4.7,5.14-4.7,1.33,0,2.12,.29,2.44,.45l-.25,.72c-.52-.26-1.3-.44-2.14-.44-2.74,0-4.25,1.65-4.25,3.99,0,2.13,1.42,3.82,4.12,3.82,.86,0,1.72-.17,2.31-.46l.22,.7Z"/>
    <path class="cls-2" d="M228.78,54.87l-1.15,3.03h-.93l3.52-8.97h.99l3.52,8.97h-.95l-1.19-3.03h-3.82Zm3.58-.71l-1.17-2.96c-.23-.59-.36-1.01-.49-1.46h-.03c-.13,.46-.28,.89-.48,1.42l-1.17,2.99h3.34Z"/>
    <path class="cls-2" d="M254.22,57.91l-3.26-8.97h.95l1.69,4.75c.47,1.34,.84,2.38,1.12,3.35h.03c.3-.97,.73-2.07,1.24-3.33l1.89-4.77h.95l-3.67,8.97h-.94Z"/>
    <path class="cls-2" d="M271.24,53.56h-3.95v3.61h4.4v.73h-5.29v-8.97h5.07v.73h-4.18v3.16h3.95v.73Z"/>
    <path class="cls-2" d="M282.27,49.67h-3.24v-.74h7.37v.74h-3.25v8.24h-.89v-8.24Z"/>
    <path class="cls-2" d="M298.82,53.56h-3.95v3.61h4.4v.73h-5.29v-8.97h5.07v.73h-4.18v3.16h3.95v.73Z"/>
    <path class="cls-2" d="M307.59,49.05c.62-.12,1.53-.2,2.31-.2,1.31,0,2.13,.26,2.7,.79,.41,.37,.68,.97,.68,1.62,0,1.19-.79,1.99-1.82,2.31v.03c.72,.25,1.18,.92,1.39,1.79,.33,1.35,.53,2.13,.74,2.51h-.93c-.15-.25-.35-1.02-.61-2.14-.29-1.26-.85-1.81-2.02-1.87h-1.55v4.02h-.88v-8.85Zm.88,4.15h1.61c1.42,0,2.3-.73,2.3-1.82,0-1.34-1.1-1.83-2.46-1.83-.71,0-1.21,.07-1.45,.13v3.52Z"/>
    <path class="cls-2" d="M322.63,48.93v8.97h-.89v-8.97h.89Z"/>
    <path class="cls-2" d="M331.55,57.91v-8.97h.93l3.73,5.15c.79,1.1,1.33,1.87,1.79,2.72l.03-.02c-.1-1.08-.11-2.14-.11-3.51v-4.34h.85v8.97h-.87l-3.64-5.04c-.73-1.04-1.42-2.02-1.91-2.87l-.04,.02c.07,1.06,.08,2.06,.08,3.39v4.49h-.85Z"/>
    <path class="cls-2" d="M349.03,54.87l-1.15,3.03h-.93l3.52-8.97h.99l3.52,8.97h-.95l-1.19-3.03h-3.82Zm3.58-.71l-1.17-2.96c-.23-.59-.36-1.01-.49-1.46h-.03c-.13,.46-.28,.89-.48,1.42l-1.17,2.99h3.34Z"/>
    <path class="cls-2" d="M363.05,49.05c.62-.12,1.53-.2,2.31-.2,1.31,0,2.13,.26,2.7,.79,.41,.37,.68,.97,.68,1.62,0,1.19-.79,1.99-1.82,2.31v.03c.72,.25,1.18,.92,1.39,1.79,.33,1.35,.53,2.13,.74,2.51h-.93c-.15-.25-.35-1.02-.61-2.14-.29-1.26-.85-1.81-2.02-1.87h-1.55v4.02h-.88v-8.85Zm.88,4.15h1.61c1.42,0,2.3-.73,2.3-1.82,0-1.34-1.1-1.83-2.46-1.83-.71,0-1.21,.07-1.45,.13v3.52Z"/>
    <path class="cls-2" d="M378.08,48.93v8.97h-.89v-8.97h.89Z"/>
    <path class="cls-2" d="M388.34,54.87l-1.15,3.03h-.93l3.52-8.97h.99l3.52,8.97h-.95l-1.19-3.03h-3.82Zm3.58-.71l-1.17-2.96c-.23-.59-.36-1.01-.49-1.46h-.03c-.14,.46-.28,.89-.48,1.42l-1.17,2.99h3.34Z"/>
  </g>
  <g>
    <path class="cls-2" d="M97.01,37.21c-.61,0-1-.34-1.19-1.01-.19-.67-.3-1.38-.33-2.12,0-.4-.22-2.33-.66-5.76-.61-4.68-1.11-17.72-1.52-22.54,0-1.08,.45-1.87,1.36-2.38,.91-.51,1.84-.88,2.78-1.11,.03-.03,.08-.05,.15-.05,.44-.13,.84-.2,1.21-.2,.88,0,1.49,.49,1.85,1.47,.35,.98,.55,10.72,.58,12.64l.02,.35c.01,.23,.24,.39,.47,.32,.44-.14,.85-.26,1.23-.36,.94-.24,1.66-.54,2.15-.91,.49-.37,.73-.96,.73-1.77v-.35c-.3-4.45-.45-7.23-.45-8.34,0-.88,.1-1.46,.3-1.74,.2-.29,.61-.46,1.21-.53,2.63-.47,4.52-.72,5.66-.76,1.18,0,1.89,.34,2.12,1.01,.17,.51,.25,1.26,.25,2.27l-.05,1.47c0,6.61,.12,15.38,.35,26.34,0,.57-.06,1.06-.18,1.47-.12,.4-.43,.66-.94,.76-1.65,.37-2.97,.56-3.94,.56-.91,0-1.63-.23-2.17-.68-.54-.45-.86-2.27-.96-5.43l-.05-1.82c-.03-.61-.08-1.2-.13-1.79-.05-.59-.15-1.04-.3-1.36-.15-.32-.36-.48-.63-.48l-.2,.05c-.74,.13-1.47,.37-2.17,.71-.54,.24-.81,.66-.81,1.26,0,.84,.08,1.99,.25,3.44,.27,2.29,.4,3.72,.4,4.3,0,.47-.03,.81-.1,1.01-.27,.44-1.52,.96-3.74,1.57-1.38,.37-2.24,.56-2.58,.56Z"/>
    <path class="cls-2" d="M133.71,39.59c-1.08,0-1.77-.25-2.07-.76-.17-.3-.25-.79-.25-1.47,0-.77,.12-1.82,.35-3.13-2.6,1.95-4.82,2.93-6.67,2.93-1.18,0-2.58-.69-4.2-2.07-1.62-1.38-2.68-4.92-3.18-10.61-.17-1.82-.25-3.76-.25-5.81,0-4.35,.39-9.2,1.16-14.56,.03-.84,.29-1.37,.76-1.59,.47-.22,1.35-.33,2.63-.33,.61,0,1.16-.02,1.67-.05l.96-.05c1.18,0,1.94,.22,2.27,.66,.13,.2,.2,.52,.2,.96,0,.81-.24,2.06-.71,3.74-1.11,4.45-1.67,8.58-1.67,12.38,0,3.13,.4,5.53,1.21,7.18,.44,.84,.89,1.26,1.36,1.26,.61,0,1.41-.94,2.4-2.83,.99-1.89,2-7.36,3.01-16.43,.17-.71,.81-1.23,1.92-1.57,.71-.24,1.42-.35,2.12-.35,.4,0,.97,.07,1.69,.2,.72,.13,1.09,.64,1.09,1.52-.47,6.54-.71,12.5-.71,17.89l.05,3.74v4.09c0,1.42-.05,2.51-.15,3.29-.1,.78-.41,1.26-.94,1.44-.52,.18-1.29,.28-2.3,.28h-.96l-.81,.05Z"/>
    <path class="cls-2" d="M144.42,37.26h-.45c-1.08,0-1.78-.13-2.1-.38-.32-.25-.48-.66-.48-1.24,0-.64,.15-3.81,.45-9.5,.44-8.69,.86-15.92,1.26-21.68,.03-.54,.25-.99,.66-1.36,.4-.37,.89-.59,1.47-.66,3.2-.24,6.59-.35,10.16-.35,2.97,0,4.55,.17,4.75,.51,.13,.54,.2,1.33,.2,2.38,0,2.39-.57,3.62-1.72,3.69-3.1,0-5.06,.03-5.89,.1-.83,.07-1.36,.27-1.62,.61-.25,.34-.38,.89-.38,1.67l-.1,1.47c-.07,.78-.1,1.43-.1,1.97,0,.34,.02,.73,.05,1.19,.03,.45,.46,.68,1.26,.68,.37,0,.84-.03,1.42-.1,.94-.13,2.27-.24,3.99-.3,.64,.07,1.16,.65,1.57,1.74,.4,1.1,.61,2.23,.61,3.41-.03,1.21-.34,2.02-.91,2.43-.81,.4-1.74,.62-2.78,.66l-1.62,.05-3.29-.1c-.34,.03-.61,.32-.81,.86-.37,.88-.56,1.99-.56,3.34,0,.81,.13,1.23,.4,1.26,2.93-.1,5.98-.25,9.15-.45,.4,0,.72,.36,.94,1.09,.22,.73,.33,1.59,.33,2.6s-.12,1.85-.35,2.63c-.24,.78-.59,1.2-1.06,1.26-2.46,.24-4.9,.35-7.33,.35h-.91c-2.06,.03-4.13,.1-6.22,.2Z"/>
    <path class="cls-2" d="M178.04,37.26h-2.88c-.57-.03-1.52-.05-2.83-.05h-5.61c-2.43,0-3.72-.27-3.89-.81-.14-.3-.2-.72-.2-1.26,0-9.13-.05-15.57-.15-19.31l-.05-7.53c0-1.82,.08-3.13,.23-3.92,.15-.79,.42-1.3,.81-1.52,.39-.22,.92-.35,1.59-.38l.71-.05c1.11-.17,2.36-.25,3.74-.25,.47,.03,.74,.37,.81,1.01,.24,4.11,.35,8.21,.35,12.28,0,1.38-.02,2.75-.05,4.09v7.28c0,.67,.08,1.1,.23,1.29,.15,.19,.38,.28,.68,.28s.71-.07,1.21-.2l1.87-.56c2.09-.67,3.66-1.01,4.7-1.01,.3,0,.76,.08,1.36,.25,.61,.17,.91,1.97,.91,5.41,0,.74-.04,1.59-.13,2.55-.08,.96-.36,1.59-.83,1.9-.74,.3-1.6,.47-2.58,.51Z"/>
    <path class="cls-2" d="M198.36,37.26h-2.88c-.57-.03-1.52-.05-2.83-.05h-5.61c-2.43,0-3.72-.27-3.89-.81-.14-.3-.2-.72-.2-1.26,0-9.13-.05-15.57-.15-19.31l-.05-7.53c0-1.82,.08-3.13,.23-3.92,.15-.79,.42-1.3,.81-1.52,.39-.22,.92-.35,1.59-.38l.71-.05c1.11-.17,2.36-.25,3.74-.25,.47,.03,.74,.37,.81,1.01,.24,4.11,.35,8.21,.35,12.28,0,1.38-.02,2.75-.05,4.09v7.28c0,.67,.08,1.1,.23,1.29,.15,.19,.38,.28,.68,.28s.71-.07,1.21-.2l1.87-.56c2.09-.67,3.66-1.01,4.7-1.01,.3,0,.76,.08,1.36,.25,.61,.17,.91,1.97,.91,5.41,0,.74-.04,1.59-.13,2.55-.08,.96-.36,1.59-.83,1.9-.74,.3-1.6,.47-2.58,.51Z"/>
    <path class="cls-2" d="M235.71,37.37c-1.04,0-2.14-.13-3.29-.4-2.66-.84-4.5-2.58-5.51-5.21-.51-1.35-.76-2.68-.76-3.99s.24-2.56,.71-3.84c.24-.57,.56-.91,.96-1.01,.27-.1,.64-.15,1.11-.15l.76,.05c1.75,0,2.91,.24,3.49,.71,.57,.47,.98,.93,1.21,1.36,.4,.64,.79,.96,1.16,.96,.2,0,.45-.07,.76-.2,1.08-.51,1.62-1.23,1.62-2.17,0-.03,0-.3-.03-.81-.02-.51-.82-1.18-2.4-2.02l-1.06-.51c-1.92-.84-3.53-1.76-4.83-2.75-1.3-.99-2.2-2.47-2.7-4.42-.17-.77-.25-1.52-.25-2.22,0-1.72,.58-3.35,1.74-4.9,1.16-1.55,2.92-2.7,5.28-3.44,1.48-.47,2.98-.71,4.5-.71,.88,0,1.77,.08,2.68,.25,2.26,.4,3.91,1.11,4.95,2.12,1.04,1.01,1.7,2.54,1.97,4.6,.03,.3,.05,.66,.05,1.06,0,2.6-.37,4.52-1.11,5.76-.24,.37-.52,.56-.86,.56-.4,0-.89-.29-1.47-.86-.57-.71-1.13-1.53-1.67-2.48-1.25-2.33-2.34-3.49-3.29-3.49-.37,0-.75,.13-1.14,.38-.39,.25-.58,.6-.58,1.04,0,.4,.26,1.03,.78,1.87,.52,.84,1.78,2.39,3.77,4.65l1.92,2.27c1.58,2.02,2.38,4.2,2.38,6.52,0,.64-.17,1.9-.51,3.77-.34,1.87-1.75,3.75-4.25,5.64-1.72,1.35-3.76,2.02-6.12,2.02Z"/>
    <path class="cls-2" d="M223.78,25.23c-.91-7.18-2.34-14.47-4.3-21.89-.17-.4-.74-.7-1.72-.88-.98-.19-1.99-.28-3.03-.28-1.85,0-3.44,.25-4.75,.76-1.15,.44-1.84,1.11-2.07,2.02l-1.82,8.49c-1.69,7.45-3.15,15.03-4.4,22.75,.17,.54,.6,.86,1.29,.96,.69,.1,1.32,.15,1.9,.15h1.06l.4,.05c.24,0,.46-.05,.66-.15,.64-.27,1.28-1.68,1.92-4.25,.67-2.76,1.18-5.26,1.52-7.48,.13-1.15,.35-1.88,.66-2.2,.3-.32,.79-.48,1.47-.48h.01c.84,0,1.5,.7,1.51,1.54,.02,4.53,.12,7.81,.3,9.84,.13,1.85,.51,2.88,1.11,3.08,.2,.07,1.03,.1,2.48,.1,2.33,0,4.31-.25,5.96-.76,.94-.3,1.42-.74,1.42-1.31-.57-3.4-1.1-6.76-1.57-10.06Zm-11.57-14.9c.15-.77,.77-1.3,1.38-1.18,.61,.12,.98,.84,.83,1.61-.15,.77-.77,1.3-1.38,1.18-.61-.12-.98-.84-.83-1.61Zm-1.87,.42c.49-.09,.99,.34,1.11,.96,.12,.62-.19,1.2-.68,1.3-.49,.09-.99-.34-1.11-.96-.12-.62,.19-1.2,.68-1.3Zm4.45,6.64c-.12,.17-.28,.31-.47,.4-.32,.15-.73,.12-1.01-.1-.21-.16-.33-.41-.47-.63-.14-.22-.2-.46-.46-.51-.27-.05-.53,.1-.79,.17-.52,.14-1.35-.18-1.6-.82-.22-.55,.05-1.19,.43-1.48,.02-.02,.03-.02,.08-.06,.47-.32,1.14-.82,2.02-1.38,.17-.11,.38-.23,.57-.17,.13,.05,.22,.17,.26,.3,.04,.13,.04,.27,.03,.4,0,.31-.02,.62-.03,.93,0,.16,0,.35,.14,.44,.17,.11,.38-.02,.52-.15,.14-.14,.3-.3,.5-.27,.12,.02,.22,.11,.28,.22,.06,.11,.08,.23,.1,.35l.1,1.4c.02,.14,.03,.29,0,.43-.03,.19-.1,.36-.21,.52Zm.69-4.41c-.51-.35-.56-1.16-.11-1.81,.45-.65,1.22-.88,1.73-.53,.51,.35,.56,1.16,.11,1.81-.45,.65-1.22,.88-1.73,.53Zm2.27,2.5c-.53,.35-1.18,.29-1.46-.12-.28-.42-.07-1.04,.46-1.39,.53-.35,1.18-.29,1.46,.12,.28,.42,.07,1.04-.46,1.39Z"/>
  </g>
  <g>
    <path class="cls-1" d="M306.31,5.52c-1.01-.98-2.61-1.66-4.79-2.05-.88-.16-1.74-.24-2.59-.24-1.47,0-2.92,.23-4.35,.68-2.28,.72-3.99,1.83-5.11,3.33-1.12,1.5-1.69,3.08-1.69,4.74,0,.69,.08,1.4,.24,2.15,.49,1.89,1.36,3.32,2.62,4.28,1.26,.96,2.81,1.85,4.67,2.67l1.03,.49c1.53,.82,2.31,1.47,2.32,1.96,.02,.49,.02,.75,.02,.78,0,.91-.52,1.61-1.57,2.1-.29,.13-.54,.2-.73,.2-.36,0-.73-.31-1.12-.93-.23-.42-.62-.86-1.17-1.32-.55-.46-1.68-.68-3.37-.68l-.73-.05c-.46,0-.82,.05-1.08,.15-.39,.1-.7,.42-.93,.98-.46,1.24-.68,2.48-.68,3.72s.24,2.56,.73,3.86c.98,2.54,2.75,4.22,5.33,5.04,1.11,.26,2.17,.39,3.18,.39,2.28,0,4.26-.65,5.92-1.96,2.41-1.83,3.78-3.64,4.11-5.45,.33-1.81,.49-3.02,.49-3.64,0-2.25-.77-4.35-2.3-6.31l-1.86-2.2c-1.92-2.18-3.14-3.68-3.64-4.5-.51-.81-.76-1.42-.76-1.81,0-.42,.19-.76,.56-1,.37-.24,.74-.37,1.1-.37,.91,0,1.97,1.12,3.18,3.37,.52,.91,1.06,1.71,1.61,2.4,.55,.55,1.03,.83,1.42,.83,.33,0,.6-.18,.83-.54,.72-1.21,1.08-3.06,1.08-5.58,0-.39-.02-.73-.05-1.03-.26-1.99-.9-3.47-1.91-4.45Z"/>
    <path class="cls-1" d="M323.96,18.03l.24-4.03s.02,0,.03,0c2.57,0,4.65-2.08,4.65-4.65s-2.08-4.65-4.65-4.65c-1.62,0-3.05,.83-3.88,2.09-.62-1.84-2.34-3.17-4.39-3.17-2.57,0-4.65,2.08-4.65,4.65s2.08,4.65,4.65,4.65c.03,0,.07,0,.1-.01v1.02c-.07,5.22-.1,6.88-.1,14.08v1.09c-.31-.06-.62-.1-.95-.1-2.57,0-4.65,2.08-4.65,4.65s2.08,4.65,4.65,4.65c1.99,0,3.68-1.25,4.34-3.01,.82,1.31,2.27,2.18,3.93,2.18,2.57,0,4.65-2.08,4.65-4.65s-2.08-4.65-4.65-4.65c-.02,0-.05,0-.07,0,.01-.35,.03-.71,.04-1.1,.26-7.63,.49-5.14,.72-9.06Z"/>
    <path class="cls-1" d="M340.79,12.27c0-.75,.12-1.29,.37-1.61,.24-.33,.77-.52,1.56-.59,.8-.06,2.7-.1,5.7-.1,1.11-.06,1.66-1.25,1.66-3.57,0-1.01-.07-1.78-.2-2.3-.2-.33-1.73-.49-4.6-.49-3.46,0-6.73,.11-9.83,.34-.55,.07-1.03,.28-1.42,.64-.39,.36-.6,.8-.64,1.32-.39,5.58-.8,12.57-1.22,20.98-.29,5.51-.44,8.58-.44,9.2,0,.55,.15,.95,.46,1.2,.31,.24,.99,.37,2.03,.37h.44c2.02-.1,4.03-.16,6.02-.2h.88c2.35,0,4.71-.11,7.09-.34,.46-.07,.8-.47,1.03-1.22,.23-.75,.34-1.6,.34-2.54s-.11-1.82-.32-2.52c-.21-.7-.51-1.05-.9-1.05-3.07,.2-6.02,.34-8.85,.44-.26-.03-.39-.44-.39-1.22,0-1.3,.18-2.38,.54-3.23,.2-.52,.46-.8,.78-.83l3.18,.1,1.57-.05c1.01-.03,1.91-.24,2.69-.64,.55-.39,.85-1.17,.88-2.35,0-1.14-.2-2.24-.59-3.3-.39-1.06-.9-1.62-1.52-1.69-1.66,.07-2.95,.16-3.86,.29-.55,.07-1.01,.1-1.37,.1-.78,0-1.19-.22-1.22-.66-.03-.44-.05-.82-.05-1.15,0-.52,.03-1.16,.1-1.91l.1-1.42Z"/>
    <path class="cls-1" d="M371.26,5.89c-2.48-1.74-5.36-2.62-8.66-2.62l-1.76,.05c-4.21,.62-6.41,1.76-6.6,3.42l-1.32,12.67c-.59,5.09-1.11,10.09-1.56,15.01-.07,.59-.1,1.08-.1,1.47,0,.59,.08,.98,.24,1.17,.29,.33,1.17,.49,2.64,.49l1.66,.05c.98,0,1.73-.05,2.25-.15,.78-.1,1.24-.42,1.37-.98,.13-.55,.2-1.21,.2-1.96l-.05-1.56v-2.69l2.93,2.93c2.25,2.48,3.7,3.77,4.35,3.89,.65,.11,1.04,.17,1.17,.17,1.21,0,2.89-1.04,5.04-3.13,.03-.03,.05-.08,.05-.15,0-.23-.29-.67-.88-1.32-1.34-1.34-3.47-3.23-6.41-5.67-2.28-1.92-3.42-2.93-3.42-3.03l.05-.05c5.44-.36,9.08-1.52,10.91-3.47,1.83-1.96,2.74-3.94,2.74-5.97,0-.62-.07-1.24-.2-1.86-.62-2.74-2.17-4.98-4.65-6.72Zm-4.62,8.22c-.41,.34-.91,.64-1.52,.9-.6,.26-1.13,.39-1.59,.39l-.54-.05c-.55-.16-.83-.73-.83-1.71,0-.16,.06-.62,.2-1.37,.03-.33,.13-.52,.29-.59,.29-.1,.64-.15,1.03-.15,.36,0,.77,.05,1.22,.15,.88,.16,1.49,.39,1.83,.68,.34,.29,.51,.55,.51,.78,0,.29-.2,.61-.61,.95Z"/>
    <path class="cls-1" d="M398.8,20.44c1.83-1.96,2.74-3.94,2.74-5.97,0-.62-.07-1.24-.2-1.86-.62-2.74-2.17-4.98-4.65-6.72-2.48-1.74-5.36-2.62-8.66-2.62l-1.76,.05c-4.21,.62-6.41,1.76-6.6,3.42l-1.32,12.67c-.59,5.09-1.11,10.09-1.56,15.01-.07,.59-.1,1.08-.1,1.47,0,.59,.08,.98,.24,1.17,.29,.33,1.17,.49,2.64,.49l1.66,.05c.98,0,1.73-.05,2.25-.15,.78-.1,1.24-.42,1.37-.98,.13-.55,.2-1.21,.2-1.96l-.05-1.56v-2.69l2.93,2.93c2.25,2.48,3.7,3.77,4.35,3.89,.65,.11,1.04,.17,1.17,.17,1.21,0,2.89-1.04,5.04-3.13,.03-.03,.05-.08,.05-.15,0-.23-.29-.67-.88-1.32-1.34-1.34-3.47-3.23-6.41-5.67-2.28-1.92-3.42-2.93-3.42-3.03l.05-.05c5.45-.36,9.08-1.52,10.91-3.47Zm-11.2-6.8c0-.16,.07-.62,.2-1.37,.03-.33,.13-.52,.29-.59,.29-.1,.64-.15,1.03-.15,.36,0,.77,.05,1.22,.15,.88,.16,1.49,.39,1.83,.68,.34,.29,.51,.55,.51,.78,0,.29-.2,.61-.61,.95-.41,.34-.91,.64-1.52,.9-.6,.26-1.13,.39-1.59,.39l-.54-.05c-.56-.16-.83-.73-.83-1.71Z"/>
    <path class="cls-1" d="M422.16,25.64c-.92-7.24-2.36-14.6-4.33-22.08-.17-.41-.75-.71-1.73-.89-.99-.19-2.01-.28-3.06-.28-1.87,0-3.47,.25-4.79,.76-1.16,.44-1.85,1.12-2.09,2.04l-1.84,8.57c-1.7,7.51-3.18,15.16-4.44,22.95,.17,.54,.6,.87,1.3,.97,.7,.1,1.33,.15,1.91,.15h1.07l.41,.05c.24,0,.46-.05,.66-.15,.65-.27,1.29-1.7,1.94-4.28,.68-2.79,1.19-5.3,1.53-7.55,.14-1.16,.36-1.89,.66-2.22,.31-.32,.8-.48,1.48-.48h.01c.84,0,1.52,.71,1.52,1.55,.02,4.57,.12,7.88,.3,9.92,.14,1.87,.51,2.91,1.12,3.11,.2,.07,1.04,.1,2.5,.1,2.35,0,4.35-.26,6.02-.76,.95-.31,1.43-.75,1.43-1.33-.58-3.43-1.11-6.82-1.58-10.15Zm-11.47-15.04c.15-.78,.78-1.31,1.39-1.19s.99,.85,.83,1.63c-.15,.78-.78,1.31-1.39,1.19-.61-.12-.99-.85-.83-1.63Zm-1.88,.43c.5-.09,1,.34,1.12,.97s-.19,1.22-.69,1.31c-.5,.09-1-.34-1.12-.97-.12-.63,.19-1.22,.69-1.31Zm4.49,6.69c-.12,.17-.28,.31-.47,.4-.32,.15-.74,.12-1.02-.1-.21-.16-.33-.41-.48-.63-.14-.22-.21-.47-.47-.51-.27-.05-.53,.1-.8,.17-.53,.14-1.36-.18-1.61-.82-.22-.56,.05-1.2,.43-1.5,.02-.02,.03-.02,.08-.06,.48-.33,1.15-.83,2.04-1.39,.18-.11,.39-.23,.58-.17,.13,.05,.22,.17,.26,.3s.04,.27,.03,.41c0,.31-.02,.63-.03,.94,0,.16,0,.35,.14,.44,.17,.11,.39-.02,.53-.15,.14-.14,.3-.3,.5-.27,.12,.02,.22,.11,.28,.22,.06,.11,.08,.23,.1,.35l.1,1.42c.02,.15,.03,.29,0,.44-.03,.19-.1,.37-.21,.52Zm.7-4.45c-.51-.36-.57-1.17-.11-1.82s1.23-.89,1.75-.53c.51,.36,.57,1.17,.11,1.82-.45,.65-1.23,.89-1.75,.53Zm2.29,2.52c-.53,.35-1.19,.3-1.47-.13-.28-.42-.07-1.05,.46-1.4,.53-.35,1.19-.3,1.47,.13,.28,.42,.07,1.05-.46,1.4Z"/>
  </g>
  <g>
    <path class="cls-1" d="M266.45,5.52c.05-1.27-.22-1.68-1.87-1.77-.91-.05-1.51,.19-1.68,1.63l-.31,3.11c-.62-.48-1.41-.69-2.2-.69-3.23,0-4.91,3.26-4.77,6.16,.17,2.78,1.96,4.62,4.12,4.62,.77,0,1.6-.24,2.4-.77,.14,1.1,1.2,1.39,2.08,1.29,.6-.1,1.49-.24,1.41-1.22-.12-1.44,.72-8.93,.81-12.36Zm-4.29,8.93c-.26,.41-.86,.67-1.49,.67-.79,0-1.58-.43-1.58-1.58,0-.96,.57-2.35,1.89-2.35,.5,0,1.13,.29,1.34,.81-.05,.72-.12,1.72-.17,2.44Z"/>
    <path class="cls-1" d="M276.32,15.1c-.46,.02-.96,.17-1.46,.24-.43,.07-.86,.1-1.27,.1-1.13,0-2.06-.31-2.28-1.58,.53,.22,1.17,.29,1.82,.29,1.39,0,2.78-.38,3.09-.77,.67-.48,.91-2.16,.36-3.33-.62-1.32-2.35-1.77-3.86-1.58-2.78,.34-5.17,2.35-4.74,5.87,.34,2.68,2.35,3.88,4.5,3.88,.98,0,3.26,.02,4.53-.91,.53-.41,.24-2.28-.69-2.2Zm-2.83-4.5c.86-.02,1.32,.86,.6,1.2-.24,.12-.57,.17-.93,.17-.69,0-1.44-.17-1.44-.17,.34-.67,.91-1.17,1.77-1.2Z"/>
    <path class="cls-1" d="M263.72,33.77c-.31-.02-.72-.02-1.15-.05-.72-.02-.81-.26-.86-.84-.19-3.35-.19-6.52-.48-9.85-.07-.72-.46-1.17-2.08-1.13-.72,.02-1.72,.36-1.72,1.2l.43,10.49c.07,1.41,.38,2.18,.86,2.59,.41,.34,1.87,.53,3.19,.53,.89,0,1.7-.07,2.08-.26,.55-.26,.69-.84,.69-1.46-.02-.98-.36-1.15-.96-1.22Z"/>
    <path class="cls-1" d="M270.28,25.55c-1.01,0-2.11,.24-3.28,.81-1.56,.74-.77,2.97,.14,2.54,1.1-.48,2.56-.77,3.57-.65,.77,.12,1.27,.46,1.17,1.13-.5-.14-1.13-.24-1.8-.24-2.16,0-4.69,.93-4.5,4,.14,2.35,1.72,3.35,3.47,3.35,1.08,0,2.25-.38,3.19-1.08-.02,.77,0,1.34,.96,1.34,.55,0,2.23-.14,2.23-.89,0-.5-.12-.98-.12-1.49,0-1.44,.12-2.9,.12-4.34,0-2.71-2.63-4.5-5.15-4.5Zm-.24,7.9c-1.32,.12-1.84-.43-1.17-1.2,.31-.36,.89-.53,1.51-.53,.57,0,1.17,.14,1.65,.38l.02,.67s-.84,.57-2.01,.67Z"/>
  </g>
</svg>